<?xml version="1.0" encoding="utf-8"?>
<!-- Generator: Adobe Illustrator 24.3.0, SVG Export Plug-In . SVG Version: 6.00 Build 0)  -->
<svg version="1.1" id="Layer_1" xmlns="http://www.w3.org/2000/svg" xmlns:xlink="http://www.w3.org/1999/xlink" x="0px" y="0px"
	 viewBox="0 0 964.61 1057.44" style="enable-background:new 0 0 964.61 1057.44;" xml:space="preserve">
<style type="text/css">
	.st0{fill:#507BBE;}
	.st1{opacity:0.1;}
	.st2{fill:url(#use4891_1_);}
	.st3{fill:url(#use4895_1_);}
	.st4{fill:url(#use4899_1_);}
	.st5{fill:url(#use4903_1_);}
	.st6{fill:url(#use4907_1_);}
	.st7{fill:url(#use4911_1_);}
	.st8{fill:url(#use4915_1_);}
	.st9{fill:url(#use4919_1_);}
	.st10{fill:url(#use4923_1_);}
	.st11{fill:url(#use4927_1_);}
	.st12{fill:url(#use4931_1_);}
	.st13{fill:url(#use4935_1_);}
	.st14{fill:url(#SVGID_1_);}
</style>
<path class="st0" d="M498.1,273.33v452.7c-1.7-0.06-3.39-0.14-5.08-0.25c-7.04-0.41-14-1.12-20.87-2.11
	c-10.71-1.54-21.19-3.77-31.38-6.64c-4.93-1.38-9.8-2.92-14.59-4.59c-7.67-2.7-15.16-5.76-22.44-9.16
	c-3.36-1.57-6.66-3.21-9.92-4.93c-5.53-2.89-10.92-6-16.16-9.3c-2.37-1.48-4.7-3.01-7-4.58c-4.2-2.84-8.29-5.81-12.27-8.92
	c-1.79-1.38-3.56-2.8-5.31-4.25c-3.42-2.8-6.74-5.71-9.98-8.7c-1.48-1.36-2.94-2.75-4.38-4.15c-2.98-2.9-5.88-5.87-8.7-8.92
	c-1.32-1.44-2.64-2.9-3.93-4.37c-2.78-3.17-5.48-6.42-8.08-9.74c-1.29-1.65-2.57-3.31-3.81-5c-2.76-3.71-5.4-7.51-7.91-11.39
	c-1.34-2.06-2.64-4.14-3.9-6.24c-2.83-4.66-5.48-9.43-7.95-14.3c-1.41-2.77-2.77-5.58-4.06-8.42c-2.84-6.23-5.39-12.6-7.65-19.11
	v-0.01c-1.37-3.97-2.64-7.97-3.79-12.04c-2.43-8.61-4.35-17.43-5.71-26.42c-0.87-5.73-1.52-11.53-1.93-17.39
	c-0.36-5.1-0.54-10.24-0.54-15.42c0-6.81,0.31-13.55,0.93-20.2c0.73-7.91,1.89-15.7,3.45-23.36c3.02-14.86,7.57-29.2,13.49-42.86
	c3.93-9.12,8.47-17.93,13.57-26.4c2.77-4.61,5.71-9.11,8.8-13.5C351.88,315.3,420.15,276.33,498.1,273.33z"/>
<g class="st1">
	<g id="layer1">
		<g id="g5502">
			<g id="g4962">
				
					<linearGradient id="use4891_1_" gradientUnits="userSpaceOnUse" x1="-809.8909" y1="1358.5864" x2="-809.7473" y2="1358.5864" gradientTransform="matrix(226.2742 0 0 -2771.8586 183653.9219 3766376.25)">
					<stop  offset="0" style="stop-color:#90C1D2"/>
					<stop  offset="1" style="stop-color:#FBF9F8;stop-opacity:0.9961"/>
				</linearGradient>
				<path id="use4891" class="st2" d="M396.54,754.26h32.49l-16.25-194.39L396.54,754.26z M396.54,379.26h32.49l-16.25,194.39
					L396.54,379.26z"/>
				
					<linearGradient id="use4895_1_" gradientUnits="userSpaceOnUse" x1="-809.3159" y1="1358.5916" x2="-809.1723" y2="1358.5916" gradientTransform="matrix(935.9739 0 0 -2735.9739 757844.125 3717637.75)">
					<stop  offset="0" style="stop-color:#90C1D2"/>
					<stop  offset="1" style="stop-color:#FBF9F8;stop-opacity:0.9961"/>
				</linearGradient>
				<path id="use4895" class="st3" d="M345.58,743.91l31.39,7.92l37.71-191.73L345.58,743.91z M448.6,381.68l31.39,7.92l-69.1,183.8
					L448.6,381.68z"/>
				
					<linearGradient id="use4899_1_" gradientUnits="userSpaceOnUse" x1="-809.241" y1="1358.6268" x2="-809.1142" y2="1358.6268" gradientTransform="matrix(1581.8885 0 0 -2513.6372 1280428.375 3415661.5)">
					<stop  offset="0" style="stop-color:#90C1D2"/>
					<stop  offset="1" style="stop-color:#FBF9F8;stop-opacity:0.9961"/>
				</linearGradient>
				<path id="use4899" class="st4" d="M412.27,566.5L412.27,566.5l-0.02,0.05l0.05-0.09L412.27,566.5z M412.27,566.5L412.27,566.5
					l-0.02,0.05l0.05-0.09L412.27,566.5z M412.27,566.5L412.27,566.5l-0.02,0.05l0.05-0.09L412.27,566.5z M412.27,566.5
					L412.27,566.5l-0.02,0.05l0.05-0.09L412.27,566.5z M412.27,566.5L412.27,566.5l-0.02,0.05l0.05-0.09L412.27,566.5z
					 M498.22,396.72l-65.35,129.11l-15.89,31.39l-2.83,5.61l-0.01,0.01l-0.53,1.05l-0.01,0.01l-0.41,0.8v0.01l-0.16,0.31v0.01
					l-0.16,0.32l-0.08,0.16l-0.08,0.17l-0.05,0.1l-0.05,0.11l-0.04,0.07l-0.04,0.08l-0.02,0.04l-0.03,0.07l-0.02,0.04l-0.02,0.05
					l-0.02,0.03l-0.02,0.04l-0.02,0.04l-0.02,0.05l-0.01,0.02l-0.02,0.02l0.02-0.02l0.02-0.02l0.01-0.02l0.02-0.02l0.02-0.03
					l0.02-0.03l0.03-0.04l0.02-0.02l0.03-0.05l0.02-0.03l0.05-0.06l0.02-0.03l0.05-0.07l0.04-0.05l0.06-0.08l0.05-0.08l0.08-0.12
					l0.08-0.11l0.15-0.2l0.14-0.18v-0.01l0.29-0.4l0.32-0.43l0.94-1.3l1.65-2.26l-1.26,2.49l-0.72,1.42l-0.24,0.48l-0.22,0.44
					l-0.1,0.19l-0.12,0.22l-0.05,0.12l-0.07,0.13l-0.04,0.08l-0.05,0.08l-0.02,0.06h-0.01l-0.03,0.07l-0.02,0.04l-0.03,0.06
					l-0.02,0.02v0.01l-0.02,0.05l-0.02,0.02l-0.02,0.04v0.01l-0.01,0.02v0.01l-0.02,0.03l-0.01,0.01l-0.01,0.02l-0.01,0.02
					l-0.06,0.12l0.02-0.02l0.01-0.02l0.02-0.02l0.01-0.01v-0.01l0.02-0.03l0.01-0.01l0.02-0.03l0.02-0.02l0.03-0.05l0.02-0.02
					l0.05-0.05v-0.01l0.02-0.03l0.04-0.06l0.03-0.04l0.06-0.08l0.05-0.06l0.07-0.1l0.06-0.08l0.12-0.16l0.1-0.15l0.22-0.3l0.2-0.29
					l0.55-0.74l0.72-0.99l3.77-5.16l20.57-28.2l59.78-81.95v-50.75L498.22,396.72z M412.27,566.5l-0.02,0.05l0.05-0.09L412.27,566.5
					L412.27,566.5z M412.27,566.5L412.27,566.5l-0.02,0.05l0.05-0.09L412.27,566.5z M412.27,566.5L412.27,566.5l-0.02,0.05
					l0.05-0.09L412.27,566.5z M412.27,566.5L412.27,566.5l-0.02,0.05l0.05-0.09L412.27,566.5z M412.27,566.5L412.27,566.5
					l-0.02,0.05l0.05-0.09L412.27,566.5z M412.27,566.5L412.27,566.5l-0.02,0.05l0.05-0.09L412.27,566.5z M413.23,567.11l-0.03,0.04
					l-0.03,0.04l-0.02,0.02l-0.02,0.03l-0.03,0.04l-0.03,0.05l-0.02,0.02l-0.04,0.06l-0.03,0.04l-0.05,0.06l-0.03,0.05l-0.06,0.08
					l-0.05,0.08l-0.08,0.12l-0.08,0.11l-0.15,0.2l-0.14,0.18v0.01l-0.29,0.4l-0.32,0.43l-0.94,1.3l-1.65,2.26l1.27-2.5l0.72-1.41
					l0.23-0.46l0.32-0.65l0.12-0.22l0.05-0.11l0.07-0.13l0.04-0.08l0.04-0.09l0.03-0.05l0.04-0.07l0.02-0.05l0.02-0.06l0.02-0.03
					l0.02-0.05l0.02-0.03l0.02-0.04v-0.01l0.01-0.02v-0.01l0.02-0.03l0.01-0.01l0.01-0.02l0.01-0.02v-0.01l0.01-0.02l0.05-0.09
					l-0.03,0.04l-0.01,0.01l-0.02,0.03l-0.02,0.03l-0.01,0.01l-0.02,0.03l-0.02,0.02l-0.03,0.05l-0.02,0.02v0.01l-0.05,0.05
					l-0.02,0.03l-0.04,0.06l-0.04,0.05l-0.05,0.08l-0.05,0.05l-0.07,0.1l-0.07,0.09l-0.12,0.16l-0.1,0.14l-0.22,0.3l-0.21,0.29
					l-0.55,0.75l-0.7,0.96l-3.75,5.14l-15.9,21.79l-10.04,13.76L299.2,721.48l28.14,15.31l60.53-119.55l8.81-17.42l11.92-23.54
					l0.02-0.02l2.82-5.58l0.01-0.01l0.53-1.05l0.01-0.01l0.41-0.8v-0.01l0.16-0.31v-0.01l0.16-0.32l0.08-0.16l0.08-0.17l0.05-0.1
					l0.05-0.11l0.03-0.06l0.05-0.08l0.02-0.05l0.03-0.07l0.02-0.03l0.03-0.05l0.02-0.05l0.02-0.04l0.02-0.02l0.02-0.04l0.02-0.04
					l0.02-0.04L413.23,567.11z M412.33,566.41l-0.02,0.02L412.33,566.41L412.33,566.41z"/>
				
					<linearGradient id="use4903_1_" gradientUnits="userSpaceOnUse" x1="-809.2135" y1="1358.6963" x2="-809.1006" y2="1358.6963" gradientTransform="matrix(2120 0 0 -2120 1715793.25 2881026)">
					<stop  offset="0" style="stop-color:#90C1D2"/>
					<stop  offset="1" style="stop-color:#FBF9F8;stop-opacity:0.9961"/>
				</linearGradient>
				<path id="use4903" class="st5" d="M413.08,567.22L413.08,567.22l-0.02,0.02l-0.02,0.02l-0.04,0.02l-0.03,0.03l-0.02,0.02
					l-0.05,0.04l-0.03,0.02l-0.05,0.05l-0.03,0.02l-0.06,0.05l-0.05,0.04l-0.08,0.06l-0.07,0.05l-0.12,0.1l-0.1,0.08l-0.19,0.16
					l-0.18,0.14l-0.39,0.32l-0.01,0.01l-0.41,0.32l-1.27,1.02l-2.23,1.8l1.88-2.08l1.09-1.2l0.36-0.41l0.35-0.38l0.15-0.16
					l0.17-0.19l0.09-0.1l0.09-0.11l0.06-0.06l0.07-0.08l0.05-0.05l0.05-0.06l0.03-0.03l0.05-0.05l0.02-0.03l0.04-0.04l0.02-0.03
					l0.04-0.04l0.02-0.02l0.03-0.03l0.03-0.04l0.02-0.02l-0.03,0.02l-0.04,0.03l-0.03,0.02l-0.04,0.03l-0.03,0.02l-0.05,0.04
					l-0.03,0.03l-0.06,0.05l-0.05,0.03l-0.08,0.07l-0.05,0.05l-0.11,0.08l-0.08,0.06l-0.15,0.12l-0.14,0.12l-0.29,0.24l-0.28,0.22
					l-0.73,0.59l-0.97,0.78l-5.04,4.05l-21.94,17.66l-12.05,9.69l-109.49,88.09l22.98,21.65l93.23-102.85l10.96-12.09l18.37-20.27
					l4.3-4.74l0.81-0.9l0.62-0.68l0.01-0.01l0.24-0.27l0.25-0.27l0.12-0.13l0.14-0.15l0.07-0.08v-0.01l0.08-0.09l0.05-0.05
					l0.06-0.07l0.04-0.04l0.05-0.05l0.03-0.03l0.05-0.05l0.02-0.02l0.04-0.04l0.03-0.04l0.02-0.02l0.02-0.02l0.02-0.02l0.05-0.05
					L413.08,567.22z M413.2,567.13l0.03-0.02l0.03-0.05L413.2,567.13z M413.08,567.22l0.08-0.05l0.05-0.05L413.08,567.22z
					 M413.08,567.22l0.08-0.05l0.05-0.05L413.08,567.22z M413.08,567.22l0.08-0.05l0.05-0.05L413.08,567.22z M413.08,567.22
					l0.08-0.05l0.05-0.05L413.08,567.22z M413.08,567.22l0.08-0.05l0.05-0.05L413.08,567.22z M413.08,567.22l0.08-0.05l0.05-0.05
					L413.08,567.22z M442.91,532.69l-23.41,25.83l-4.32,4.77l-0.81,0.89l-0.01,0.01l-0.62,0.69l-0.25,0.27l-0.25,0.28l-0.12,0.13
					l-0.14,0.15l-0.08,0.08l-0.08,0.09l-0.05,0.05l-0.07,0.07l-0.04,0.05l-0.05,0.05l-0.03,0.03l-0.05,0.05l-0.02,0.02l-0.04,0.05
					l-0.05,0.05l-0.03,0.04l-0.04,0.04l0.03-0.02l0.05-0.04l0.05-0.04l0.02-0.02l0.02-0.02l0.04-0.03l0.03-0.02l0.05-0.04l0.03-0.02
					l0.05-0.04l0.04-0.04l0.06-0.05l0.05-0.05l0.08-0.06l0.07-0.05l0.12-0.1l0.1-0.08l0.19-0.16l0.18-0.14l0.4-0.32l0.42-0.33
					l1.27-1.03l2.22-1.78l-1.92,2.11l-1.07,1.19l-0.35,0.39l-0.35,0.38l-0.15,0.17l-0.16,0.19l-0.08,0.09l-0.1,0.11l-0.06,0.07
					l-0.07,0.08l-0.04,0.04l-0.06,0.07l-0.02,0.03l-0.05,0.05v0.01l-0.02,0.02l-0.06,0.06v0.01l-0.05,0.05l-0.01,0.01l-0.02,0.04
					h-0.01l-0.02,0.02l-0.06,0.08l0.03-0.02l0.02-0.02l0.03-0.02l0.03-0.03l0.03-0.02l0.04-0.03l0.03-0.02l0.05-0.04l0.03-0.02
					l0.06-0.05l0.04-0.03l0.08-0.06l0.05-0.05l0.1-0.08l0.09-0.07l0.15-0.12l0.13-0.12l0.29-0.23l0.29-0.22l0.73-0.59l0.94-0.76
					l4.99-4.02l26.97-21.7l51.45-41.39v-27.54L442.91,532.69z M413.15,567.18l0.05-0.05l-0.12,0.09L413.15,567.18z M413.08,567.22
					l0.08-0.05l0.05-0.05L413.08,567.22z M413.08,567.22l0.08-0.05l0.05-0.05L413.08,567.22z M413.08,567.22l0.08-0.05l0.05-0.05
					L413.08,567.22z M413.08,567.22l0.08-0.05l0.05-0.05L413.08,567.22z M413.08,567.22l0.08-0.05l0.05-0.05L413.08,567.22z"/>
				
					<linearGradient id="use4907_1_" gradientUnits="userSpaceOnUse" x1="-809.2009" y1="1358.8661" x2="-809.0944" y2="1358.8661" gradientTransform="matrix(2513.6348 0 0 -1581.8901 2034267.75 2150168.75)">
					<stop  offset="0" style="stop-color:#90C1D2"/>
					<stop  offset="1" style="stop-color:#FBF9F8;stop-opacity:0.9961"/>
				</linearGradient>
				<path id="use4907" class="st6" d="M412.45,566.31l-0.05,0.04l0.09-0.06L412.45,566.31z M412.45,566.31l-0.05,0.04l0.09-0.06
					L412.45,566.31z M412.45,566.31l-0.05,0.04l0.09-0.06L412.45,566.31z M412.45,566.31l-0.05,0.04l0.09-0.06L412.45,566.31z
					 M412.45,566.31l-0.05,0.04l0.09-0.06L412.45,566.31z M450.39,541.75l-28.95,18.74l-5.41,3.5l-1.02,0.66l-0.8,0.52l-0.31,0.19
					l-0.31,0.21h-0.01l-0.15,0.09l-0.17,0.12l-0.09,0.05l-0.11,0.07l-0.07,0.05l-0.07,0.05l-0.05,0.03l-0.06,0.05l-0.04,0.02
					l-0.05,0.03l-0.02,0.02l-0.05,0.03l-0.02,0.02l-0.05,0.03l-0.02,0.02l-0.02,0.01l-0.05,0.03l0.1-0.05l0.02-0.01l0.02-0.01h0.01
					l0.04-0.02l0.03-0.02l0.05-0.02l0.02-0.02l0.05-0.02l0.04-0.02l0.06-0.02l0.05-0.02l0.07-0.03l0.15-0.08l0.08-0.03l0.14-0.06
					l0.12-0.05h0.01l0.23-0.11l0.21-0.09l0.47-0.22l0.49-0.22l1.49-0.67l2.66-1.2l-2.39,1.54l-1.38,0.9l-0.46,0.3l-0.43,0.28
					l-0.19,0.12l-0.21,0.13l-0.12,0.08l-0.13,0.08l-0.07,0.05l-0.09,0.06l-0.05,0.03l-0.08,0.05l-0.04,0.02l-0.05,0.04l-0.04,0.02
					l-0.05,0.03l-0.03,0.02l-0.04,0.03l-0.03,0.02l-0.03,0.02l-0.05,0.03l-0.08,0.05l0.05-0.02l0.04-0.02l0.04-0.02l0.03-0.02h0.01
					l0.05-0.02l0.04-0.02l0.05-0.03l0.05-0.02l0.07-0.03l0.05-0.02l0.09-0.04l0.07-0.03l0.12-0.05l0.09-0.05l0.19-0.08l0.17-0.08
					l0.34-0.15l0.33-0.15l0.86-0.39l1.14-0.52l6.02-2.7l30.83-13.86l46.05-20.68v-18.52L450.39,541.75z M412.41,566.35l0.09-0.06
					l-0.05,0.02L412.41,566.35z M412.45,566.31l-0.05,0.04l0.09-0.06L412.45,566.31z M412.45,566.31l-0.05,0.04l0.09-0.06
					L412.45,566.31z M412.45,566.31l-0.05,0.04l0.09-0.06L412.45,566.31z M412.45,566.31l-0.05,0.04l0.09-0.06L412.45,566.31z
					 M412.45,566.31l-0.05,0.04l0.09-0.06L412.45,566.31z M413.02,567.25l-0.03,0.02l-0.05,0.02l-0.05,0.02l-0.02,0.01l-0.05,0.03
					l-0.03,0.02l-0.05,0.02l-0.03,0.02l-0.06,0.02l-0.05,0.02l-0.08,0.03l-0.05,0.03l-0.1,0.04l-0.08,0.04l-0.14,0.06l-0.12,0.05
					l-0.23,0.11l-0.21,0.09l-0.48,0.22l-0.51,0.23l-1.5,0.67l-2.63,1.18l2.43-1.57l1.37-0.89l0.44-0.29l0.43-0.28l0.2-0.13
					l0.21-0.13l0.11-0.07l0.13-0.08l0.07-0.05l0.09-0.06l0.05-0.03l0.07-0.05l0.04-0.02l0.05-0.04l0.04-0.02l0.05-0.03l0.02-0.02
					l0.05-0.03l0.03-0.02l0.02-0.02l0.02-0.02l0.03-0.02l0.09-0.06l-0.05,0.02l-0.04,0.02l-0.02,0.01l-0.04,0.02l-0.03,0.02
					l-0.05,0.02l-0.04,0.02l-0.05,0.02l-0.04,0.02l-0.07,0.03l-0.05,0.02l-0.09,0.04l-0.06,0.03l-0.12,0.05l-0.1,0.05l-0.19,0.08
					l-0.16,0.08l-0.33,0.15l-0.35,0.15l-0.86,0.39l-1.11,0.5l-5.97,2.68l-27.05,12.16l-14.83,6.67L232.3,647.25l16.25,26.51
					l118.47-76.71l13.01-8.42l24.02-15.55l5.45-3.53l1.05-0.68l0.8-0.52l0.3-0.2l0.32-0.21l0.15-0.09l0.17-0.12l0.09-0.05l0.11-0.08
					l0.07-0.04l0.08-0.05l0.05-0.03l0.06-0.04l0.04-0.02l0.05-0.03h0.01l0.03-0.02l0.05-0.03l0.02-0.02l0.05-0.03L413.02,567.25
					l0.03-0.02L413.02,567.25z M412.56,566.25l-0.02,0.01l-0.05,0.03l0.1-0.05L412.56,566.25z"/>
				
					<linearGradient id="use4911_1_" gradientUnits="userSpaceOnUse" x1="-809.1953" y1="1359.339" x2="-809.0917" y2="1359.339" gradientTransform="matrix(2735.9731 0 0 -935.9702 2214153 1272884.375)">
					<stop  offset="0" style="stop-color:#90C1D2"/>
					<stop  offset="1" style="stop-color:#FBF9F8;stop-opacity:0.9961"/>
				</linearGradient>
				<path id="use4911" class="st7" d="M412.79,567.3l0.1-0.01l0.07-0.02L412.79,567.3z M412.79,567.3l0.1-0.01l0.07-0.02
					L412.79,567.3z M412.79,567.3l0.1-0.01l0.07-0.02L412.79,567.3z M412.79,567.3l0.1-0.01l0.07-0.02L412.79,567.3z M412.79,567.3
					l0.1-0.01l0.07-0.02L412.79,567.3z M454.81,552.16l-31.83,10.62l-6.26,2.09l-1.21,0.41l-0.9,0.3l-0.35,0.12l-0.37,0.12
					l-0.17,0.05l-0.19,0.07h-0.01l-0.1,0.03l-0.13,0.05l-0.07,0.02l-0.09,0.03l-0.05,0.02l-0.07,0.02l-0.05,0.02l-0.06,0.02
					l-0.04,0.01l-0.05,0.02l-0.02,0.01l-0.06,0.02l-0.03,0.02h-0.02l-0.04,0.02h-0.01l-0.02,0.01l0.08-0.01l0.05-0.02h0.04
					l0.05-0.02h0.02l0.09-0.02l0.05-0.01l0.04-0.01l0.06-0.02l0.05-0.01l0.08-0.02l0.06-0.01l0.11-0.02l0.08-0.02l0.15-0.02
					l0.12-0.02l0.26-0.05l0.22-0.04l0.51-0.08l0.56-0.1l1.63-0.29l2.87-0.5l-2.76,0.93l-1.56,0.52l-0.53,0.18l-0.49,0.16l-0.22,0.07
					l-0.25,0.08l-0.12,0.04l-0.15,0.05l-0.08,0.02l-0.12,0.04l-0.05,0.02l-0.08,0.03l-0.05,0.02l-0.07,0.02l-0.04,0.01l-0.05,0.02
					l-0.04,0.01l-0.04,0.02l-0.04,0.02l-0.04,0.01l-0.02,0.01l-0.03,0.02l-0.06,0.02h0.03l0.03-0.01h0.02l0.05-0.02l0.04-0.01
					l0.05-0.01h0.04l0.06-0.02l0.05-0.01l0.07-0.02l0.05-0.01l0.1-0.02l0.07-0.02l0.14-0.02l0.11-0.02l0.21-0.04l0.17-0.03
					l0.37-0.06l0.38-0.07l0.92-0.15l1.24-0.22l6.45-1.13l32.41-5.66l43.85-7.65v-14.98L454.81,552.16z M412.89,567.29l0.07-0.02
					l-0.17,0.03L412.89,567.29z M412.79,567.3l0.1-0.01l0.07-0.02L412.79,567.3z M412.79,567.3l0.1-0.01l0.07-0.02L412.79,567.3z
					 M412.79,567.3l0.1-0.01l0.07-0.02L412.79,567.3z M412.79,567.3l0.1-0.01l0.07-0.02L412.79,567.3z M412.79,567.3l0.1-0.01
					l0.07-0.02L412.79,567.3z M412.96,567.27h0.03l0.03-0.02L412.96,567.27z M412.79,567.3h-0.02l-0.05,0.02h-0.03l-0.05,0.01
					l-0.03,0.01l-0.05,0.01l-0.05,0.01l-0.05,0.02l-0.05,0.01l-0.08,0.02l-0.06,0.01l-0.11,0.02l-0.08,0.01l-0.15,0.03l-0.12,0.02
					l-0.26,0.05l-0.23,0.04l-0.51,0.08l-0.53,0.1l-1.62,0.28l-2.91,0.51l4.31-1.44l0.54-0.19l0.49-0.15l0.22-0.08l0.25-0.08
					l0.12-0.04l0.15-0.05l0.08-0.02l0.12-0.04l0.05-0.02l0.08-0.02l0.05-0.02l0.07-0.02l0.04-0.02l0.05-0.02l0.04-0.02l0.04-0.01
					l0.03-0.02l0.05-0.02l0.05-0.02l0.02-0.01h-0.04l-0.05,0.02h-0.02l-0.05,0.01l-0.04,0.01l-0.06,0.02l-0.05,0.01l-0.07,0.01
					l-0.05,0.02h-0.01l-0.09,0.02l-0.07,0.01l-0.14,0.03l-0.11,0.02l-0.21,0.04l-0.18,0.03l-0.38,0.06l-0.37,0.07l-0.92,0.16
					l-1.27,0.22l-6.5,1.14l-30.64,5.34h-0.01l-19.52,3.41L216.33,600.5l8.41,29.57l133.09-44.41l16.24-5.42l28.58-9.54l6.22-2.07
					l1.17-0.39l0.9-0.3l0.36-0.12l0.37-0.12l0.17-0.05l0.19-0.07h0.01l0.1-0.03l0.13-0.05l0.07-0.02l0.09-0.03l0.05-0.02l0.07-0.02
					l0.05-0.02l0.05-0.02l0.04-0.01l0.05-0.02h0.01l0.03-0.01l0.05-0.02l0.02-0.01l0.04-0.02l0.07-0.02L412.79,567.3z
					 M412.63,566.23l-0.02,0.01l0.08-0.01H412.63z"/>
				
					<linearGradient id="use4915_1_" gradientUnits="userSpaceOnUse" x1="-809.1945" y1="1363.0059" x2="-809.0912" y2="1363.0059" gradientTransform="matrix(2771.855 0 0 -226.27 2243183.5 308974.125)">
					<stop  offset="0" style="stop-color:#90C1D2"/>
					<stop  offset="1" style="stop-color:#FBF9F8;stop-opacity:0.9961"/>
				</linearGradient>
				<path id="use4915" class="st8" d="M412.75,566.21l-0.05,0.02l0.09-0.01L412.75,566.21z M412.75,566.21l-0.05,0.02l0.09-0.01
					L412.75,566.21z M412.75,566.21l-0.05,0.02l0.09-0.01L412.75,566.21z M412.75,566.21l-0.05,0.02l0.09-0.01L412.75,566.21z
					 M412.75,566.21l-0.05,0.02l0.09-0.01L412.75,566.21z M456.06,563.01l-32.46,2.41l-6.52,0.49l-1.25,0.09l-0.95,0.07l-0.39,0.02
					l-0.38,0.03l-0.17,0.02l-0.22,0.02l-0.11,0.01l-0.13,0.01l-0.08,0.01l-0.1,0.01h-0.05l-0.08,0.01h-0.05l-0.05,0.01h-0.05
					l-0.05,0.01h-0.05l-0.05,0.01h-0.08l-0.03,0.01l0.08,0.01h0.08l0.02,0.01h0.12l0.01,0.01h0.08l0.05,0.01h0.07l0.05,0.01
					l0.08,0.01h0.06l0.11,0.01l0.08,0.01l0.16,0.02l0.13,0.01l0.25,0.02l0.25,0.02l0.52,0.04l0.56,0.04l1.63,0.12l2.95,0.22
					l-2.92,0.22l-1.65,0.12l-0.56,0.04h-0.01l-0.52,0.04l-0.22,0.02h-0.01l-0.26,0.02l-0.12,0.01l-0.17,0.02l-0.08,0.01l-0.12,0.01
					h-0.06l-0.08,0.01l-0.05,0.01h-0.07l-0.05,0.01h-0.05l-0.04,0.01h-0.08l-0.05,0.01h-0.05l-0.1,0.01l0.06,0.01h0.04l0.05,0.01
					h0.03l0.05,0.01h0.05l0.05,0.01h0.05l0.08,0.01h0.05l0.1,0.01l0.08,0.01l0.13,0.01l0.11,0.01l0.22,0.02l0.18,0.02l0.39,0.03
					l0.37,0.02h0.01l0.94,0.07l0.01,0.01l1.27,0.09l6.56,0.49l31.46,2.33l44.73,3.31v-14L456.06,563.01z M412.69,566.23l0.09-0.01
					l-0.04-0.01L412.69,566.23z M412.75,566.21l-0.05,0.02l0.09-0.01L412.75,566.21z M412.75,566.21l-0.05,0.02l0.09-0.01
					L412.75,566.21z M412.75,566.21l-0.05,0.02l0.09-0.01L412.75,566.21z M412.75,566.21l-0.05,0.02l0.09-0.01L412.75,566.21z
					 M412.75,566.21l-0.05,0.02l0.09-0.01L412.75,566.21z M412.82,566.21l-0.03,0.01l0.08,0.01L412.82,566.21z M412.62,567.29
					l-0.04-0.01h-0.08l-0.04-0.01h-0.05l-0.05-0.01h-0.07l-0.05-0.01l-0.08-0.01h-0.06l-0.12-0.01l-0.08-0.01l-0.17-0.02l-0.13-0.01
					l-0.25-0.02l-0.23-0.02l-0.52-0.04l-0.58-0.04l-1.65-0.12l-2.91-0.22l2.94-0.22l1.64-0.12l0.55-0.04h0.01l0.52-0.04l0.24-0.02
					l0.25-0.02l0.13-0.01l0.16-0.02l0.08-0.01l0.11-0.01h0.06l0.08-0.01l0.05-0.01h0.07l0.05-0.01h0.08l0.05-0.01h0.04l0.05-0.01
					h0.06l0.09-0.01l-0.04-0.01h-0.07l-0.05-0.01h-0.05l-0.05-0.01h-0.04l-0.05-0.01h-0.05l-0.08-0.01h-0.05l-0.1-0.01l-0.08-0.01
					l-0.13-0.01l-0.11-0.01l-0.22-0.02l-0.17-0.02l-0.39-0.03l-0.38-0.02h-0.01l-0.94-0.07l-0.01-0.01l-1.25-0.09l-6.53-0.48
					l-32.44-2.41l-26.94-2l-128.82-9.55v30.61l134.96-10.01l21.73-1.61l31.45-2.33l6.56-0.49l1.29-0.1l0.95-0.07l0.37-0.02
					l0.38-0.03l0.19-0.02l0.22-0.02l0.11-0.01l0.13-0.01l0.08-0.01l0.1-0.01h0.05l0.08-0.01h0.05v-0.01h0.1l0.05-0.01h0.04
					l0.05-0.01h0.03l0.06-0.01l-0.11-0.01H412.62z"/>
				
					<linearGradient id="use4919_1_" gradientUnits="userSpaceOnUse" x1="-809.1953" y1="1359.3749" x2="-809.0917" y2="1359.3749" gradientTransform="matrix(2735.9729 0 0 -935.9702 2214152.75 1272884.375)">
					<stop  offset="0" style="stop-color:#90C1D2"/>
					<stop  offset="1" style="stop-color:#FBF9F8;stop-opacity:0.9961"/>
				</linearGradient>
				<path id="use4919" class="st9" d="M412.94,566.23h-0.08l0.09,0.01L412.94,566.23z M412.94,566.23h-0.08l0.09,0.01L412.94,566.23
					z M412.94,566.23h-0.08l0.09,0.01L412.94,566.23z M412.94,566.23h-0.08l0.09,0.01L412.94,566.23z M412.94,566.23h-0.08
					l0.09,0.01L412.94,566.23z M454.32,573.46l-30.65-5.35l-6.49-1.14l-1.27-0.22l-0.92-0.16l-0.36-0.07l-0.38-0.06l-0.19-0.03
					l-0.2-0.04l-0.11-0.02l-0.14-0.02l-0.07-0.02l-0.1-0.02l-0.05-0.01l-0.07-0.02l-0.05-0.01l-0.06-0.02h-0.04l-0.05-0.01
					l-0.04-0.01l-0.05-0.01h-0.02l0.01,0.01l0.04,0.02h0.01l0.04,0.01l0.01,0.01l0.03,0.01l0.04,0.02l0.04,0.01l0.05,0.02l0.04,0.02
					l0.07,0.02l0.05,0.02l0.08,0.03l0.05,0.02l0.12,0.04l0.08,0.02l0.15,0.05l0.13,0.04l0.25,0.08l0.22,0.08l0.49,0.15l0.54,0.19
					l1.57,0.53l2.74,0.91l-2.9-0.5l-0.02-0.01l-1.61-0.28l-0.54-0.09h-0.01l-0.51-0.09l-0.22-0.04l-0.26-0.05l-0.12-0.02l-0.15-0.02
					l-0.08-0.02l-0.11-0.02l-0.06-0.01l-0.08-0.02l-0.05-0.01l-0.06-0.02l-0.04-0.01l-0.06-0.01h-0.02l-0.05-0.02h-0.03l-0.05-0.02
					h-0.02l-0.17-0.03l0.06,0.02l0.05,0.02l0.02,0.01l0.06,0.02l0.03,0.02l0.05,0.02l0.03,0.01l0.06,0.02l0.05,0.02l0.07,0.02
					l0.05,0.02l0.09,0.03l0.07,0.02l0.13,0.05l0.11,0.04l0.19,0.06l0.17,0.05l0.37,0.12l0.35,0.12l0.01,0.01l0.9,0.3h0.01l1.16,0.39
					l0.02,0.01l6.23,2.08l28.55,9.52l48.38,16.14v-14.98L454.32,573.46z M412.94,566.23h-0.08l0.09,0.01L412.94,566.23z
					 M412.94,566.23h-0.08l0.09,0.01L412.94,566.23z M412.94,566.23h-0.08l0.09,0.01L412.94,566.23z M412.94,566.23h-0.08l0.09,0.01
					L412.94,566.23z M412.94,566.23h-0.08l0.09,0.01L412.94,566.23z M412.94,566.23h-0.08l0.09,0.01L412.94,566.23z M412.94,566.23
					h-0.02l-0.03-0.02h-0.02l-0.03-0.02l-0.05-0.02l-0.02-0.01l-0.05-0.02l-0.05-0.02l-0.06-0.02l-0.04-0.02l-0.07-0.02l-0.05-0.02
					l-0.09-0.03l-0.07-0.02l-0.13-0.05l-0.1-0.03h-0.01l-0.19-0.07l-0.17-0.05l-0.37-0.12l-0.34-0.12l-0.91-0.3l-1.19-0.39
					l-0.01-0.01l-6.22-2.08l-0.02-0.01l-31.85-10.63l-37.23-12.41v-0.01l-108.79-36.29l-8.41,29.56l123.11,21.49l30.12,5.25
					l32.4,5.66l6.46,1.13l1.24,0.22l0.92,0.15l0.39,0.07l0.37,0.06l0.17,0.03l0.21,0.04l0.11,0.02l0.14,0.03l0.07,0.01l0.09,0.02
					h0.01l0.05,0.02l0.07,0.01l0.05,0.01l0.06,0.02l0.04,0.01l0.05,0.01l0.04,0.01h0.03l0.01,0.01h0.05l-0.05-0.02l-0.02-0.01
					l-0.05-0.02l-0.04-0.02l-0.04-0.01l-0.04-0.02l-0.05-0.02l-0.04-0.02l-0.07-0.02l-0.05-0.02l-0.08-0.02l-0.06-0.02l-0.11-0.04
					l-0.08-0.02l-0.15-0.05l-0.12-0.04l-0.25-0.08l-0.23-0.08l-0.49-0.16l-0.52-0.18l-1.57-0.53l-2.76-0.92l2.88,0.5l1.64,0.29
					l0.54,0.09l0.01,0.01l0.52,0.08l0.22,0.04l0.26,0.05l0.12,0.02l0.15,0.03l0.08,0.01l0.11,0.02l0.06,0.01l0.08,0.02l0.05,0.01
					l0.05,0.02l0.04,0.01l0.06,0.01l0.04,0.01l0.05,0.01h0.02l0.06,0.02h0.03l0.05,0.02l0.09,0.01L412.94,566.23z M412.6,567.27
					l0.06,0.02l0.11,0.01L412.6,567.27z"/>
				
					<linearGradient id="use4923_1_" gradientUnits="userSpaceOnUse" x1="-809.2009" y1="1358.8977" x2="-809.0944" y2="1358.8977" gradientTransform="matrix(2513.6348 0 0 -1581.8901 2034267.75 2150168.75)">
					<stop  offset="0" style="stop-color:#90C1D2"/>
					<stop  offset="1" style="stop-color:#FBF9F8;stop-opacity:0.9961"/>
				</linearGradient>
				<path id="use4923" class="st10" d="M412.45,567.2l0.02,0.02l0.02,0.01L412.45,567.2z M413.03,566.27L413.03,566.27l-0.02-0.02
					l-0.05-0.01l0.11,0.05L413.03,566.27z M412.45,567.2l0.02,0.02l0.02,0.01L412.45,567.2z M412.45,567.2l0.02,0.02l0.02,0.01
					L412.45,567.2z M412.45,567.2l0.02,0.02l0.02,0.01L412.45,567.2z M412.45,567.2l0.02,0.02l0.02,0.01L412.45,567.2z
					 M412.45,567.2l0.02,0.02l0.02,0.01L412.45,567.2z M449.96,582.86l-27.03-12.14l-0.02-0.01l-5.96-2.68l-0.02-0.01l-1.1-0.49
					l-0.01-0.01l-0.86-0.39h-0.01l-0.35-0.15l-0.33-0.15l-0.16-0.07l-0.19-0.08l-0.11-0.05l-0.12-0.05l-0.06-0.03l-0.09-0.04h-0.01
					l-0.05-0.02l-0.07-0.03l-0.04-0.02l-0.05-0.02l-0.04-0.02l-0.05-0.02l-0.03-0.02l-0.04-0.02l-0.03-0.02l-0.03-0.01l-0.05-0.02
					l0.09,0.06l0.02,0.01l0.03,0.02l0.02,0.02l0.03,0.02l0.05,0.03l0.02,0.02l0.05,0.03l0.04,0.02l0.05,0.04l0.04,0.02l0.07,0.05
					l0.05,0.03l0.08,0.05l0.08,0.05l0.13,0.08l0.11,0.07l0.21,0.13l0.2,0.13l0.43,0.28h0.01l0.44,0.29l1.36,0.89l0.02,0.01
					l2.42,1.56l-2.63-1.18l-1.51-0.68l-0.5-0.22L414,567.9l-0.21-0.09l-0.23-0.11l-0.12-0.05l-0.14-0.06l-0.08-0.04l-0.1-0.04
					l-0.05-0.03l-0.08-0.03l-0.05-0.02l-0.06-0.03l-0.03-0.01h-0.01l-0.05-0.02l-0.03-0.02h-0.01l-0.05-0.02h-0.01l-0.02-0.01
					l-0.05-0.02h-0.01l-0.04-0.02l-0.02-0.01l-0.05-0.02l0.02,0.02l0.04,0.02l0.05,0.03l0.02,0.01l0.05,0.04l0.03,0.02l0.05,0.03
					l0.03,0.02l0.07,0.04l0.05,0.03l0.08,0.05l0.07,0.04l0.11,0.08l0.09,0.05l0.17,0.12l0.15,0.09l0.32,0.21l0.3,0.2l0.8,0.52
					l1.03,0.66l5.47,3.54l24.01,15.55l54.32,35.18v-18.52L449.96,582.86z M412.48,567.22l0.02,0.01l-0.05-0.03L412.48,567.22z
					 M412.45,567.2l0.02,0.02l0.02,0.01L412.45,567.2z M412.45,567.2l0.02,0.02l0.02,0.01L412.45,567.2z M412.45,567.2l0.02,0.02
					l0.02,0.01L412.45,567.2z M412.45,567.2l0.02,0.02l0.02,0.01L412.45,567.2z M413.03,566.27L413.03,566.27l-0.02-0.02l-0.05-0.01
					l0.11,0.05L413.03,566.27z M412.45,567.2l0.02,0.02l0.02,0.01L412.45,567.2z M413.03,566.27L413.03,566.27l-0.02-0.02
					l-0.02-0.02h-0.01l-0.04-0.03l-0.03-0.02l-0.05-0.04l-0.02-0.02l-0.05-0.03l-0.04-0.02l-0.07-0.05l-0.05-0.03l-0.08-0.05
					l-0.06-0.05l-0.11-0.07l-0.09-0.05l-0.17-0.12l-0.15-0.09h-0.01l-0.31-0.21l-0.31-0.19l-0.8-0.52l-1.02-0.66l-5.44-3.52
					l-28.92-18.72l-48.98-31.72l-77.65-50.29l-16.25,26.51l98.31,44.18l41.15,18.48l30.85,13.86l0.02,0.01l5.97,2.69l1.14,0.51
					l0.01,0.01l0.86,0.39h0.01l0.33,0.15l0.34,0.15l0.17,0.08l0.19,0.08l0.09,0.05l0.12,0.05l0.07,0.03l0.09,0.04l0.05,0.02
					l0.07,0.03l0.05,0.02l0.05,0.03l0.04,0.02l0.05,0.02h0.01l0.03,0.02l0.04,0.02l0.04,0.02l0.04,0.02l0.02,0.01l-0.05-0.03
					l-0.04-0.02l-0.05-0.03l-0.03-0.02l-0.03-0.02l-0.04-0.03l-0.03-0.02l-0.05-0.03l-0.04-0.02l-0.05-0.04l-0.04-0.02l-0.08-0.05
					l-0.05-0.04l-0.08-0.05l-0.07-0.05l-0.13-0.08l-0.12-0.08l-0.21-0.13l-0.19-0.12l-0.43-0.28h-0.01l-0.45-0.3l-1.37-0.89
					l-0.01-0.01l-2.4-1.55l2.65,1.19l1.51,0.68l0.49,0.22l0.47,0.22l0.21,0.09l0.23,0.11h0.01l0.12,0.05l0.14,0.06l0.08,0.03
					l0.09,0.05l0.06,0.03l0.07,0.03l0.05,0.02l0.06,0.03l0.04,0.02l0.05,0.02l0.02,0.02l0.05,0.02l0.02,0.02h0.01l0.03,0.02h0.02
					l0.02,0.01l0.01,0.01l0.11,0.05L413.03,566.27z"/>
				
					<linearGradient id="use4927_1_" gradientUnits="userSpaceOnUse" x1="-809.2135" y1="1358.7181" x2="-809.1006" y2="1358.7181" gradientTransform="matrix(2119.9961 0 0 -2120.0002 1715790.125 2881026.25)">
					<stop  offset="0" style="stop-color:#90C1D2"/>
					<stop  offset="1" style="stop-color:#FBF9F8;stop-opacity:0.9961"/>
				</linearGradient>
				<path id="use4927" class="st11" d="M413.15,566.32l-0.02-0.02l-0.01-0.01l-0.02-0.02l-0.02-0.02l-0.05-0.05l-0.02-0.02
					l-0.05-0.05l-0.02-0.02l-0.05-0.06l-0.04-0.04l-0.06-0.08l-0.05-0.05l-0.08-0.09l-0.07-0.09l-0.14-0.15l-0.12-0.13l-0.25-0.27
					l-0.24-0.27l-0.01-0.01l-0.62-0.68l-0.81-0.9l-4.3-4.74l-23.45-25.86L325,469.09l-41.47-45.74L260.56,445l64.14,51.61
					l52.45,42.2l26.94,21.67l5.01,4.03l0.95,0.76l0.73,0.59l0.01,0.01l0.29,0.22l0.29,0.23l0.13,0.12l0.15,0.12l0.09,0.07l0.1,0.08
					l0.05,0.05l0.08,0.05l0.05,0.04l0.06,0.05l0.03,0.03l0.05,0.04l0.03,0.02l0.04,0.03l0.03,0.02l0.04,0.03l0.03,0.02l0.02,0.02
					l-0.05-0.06l-0.02-0.02h-0.01l-0.02-0.04l-0.01-0.01l-0.02-0.02l-0.03-0.03v-0.01l-0.02-0.02l-0.04-0.04l-0.03-0.03l-0.05-0.05
					l-0.03-0.04l-0.05-0.06l-0.04-0.04l-0.07-0.08l-0.06-0.07l-0.1-0.11l-0.08-0.09l-0.16-0.19l-0.15-0.17l-0.34-0.38l-0.36-0.39
					l-1.07-1.19l-1.92-2.11l2.22,1.78l1.27,1.03l0.42,0.33l0.4,0.32l0.18,0.14l0.19,0.16l0.1,0.08l0.12,0.1l0.07,0.05l0.08,0.06
					l0.05,0.04l0.07,0.05l0.04,0.04l0.05,0.04l0.02,0.02l0.05,0.04l0.03,0.02l0.04,0.03l0.05,0.05h0.01l0.04,0.03l0.05,0.04
					L413.15,566.32z M413.21,566.38l-0.03-0.02l0.04,0.04L413.21,566.38z M443.47,590.73l-21.94-17.66l-5.04-4.05l-0.96-0.77h-0.01
					l-0.73-0.59h-0.01l-0.27-0.22l-0.29-0.24h-0.01l-0.14-0.12l-0.16-0.12l-0.08-0.06l-0.11-0.08l-0.06-0.05l-0.07-0.06l-0.05-0.03
					l-0.06-0.05l-0.03-0.03l-0.05-0.04l-0.03-0.02l-0.04-0.03l-0.03-0.02l-0.04-0.03l-0.03-0.02l-0.02-0.02l0.05,0.06l0.02,0.02
					h0.01l0.02,0.04l0.01,0.02l0.02,0.01l0.03,0.03v0.01l0.02,0.02l0.04,0.04l0.02,0.03l0.05,0.05l0.02,0.04l0.05,0.05l0.05,0.05
					l0.08,0.08l0.05,0.06l0.1,0.11l0.08,0.1l0.17,0.19l0.15,0.16l0.35,0.38l0.01,0.01l0.36,0.39l1.08,1.19l1.89,2.09l-2.22-1.78
					l-1.27-1.03l-0.42-0.33l-0.4-0.32l-0.18-0.14l-0.19-0.16l-0.1-0.08l-0.12-0.1l-0.07-0.05l-0.08-0.06l-0.05-0.05l-0.06-0.05
					l-0.04-0.02l-0.05-0.04l-0.04-0.03l-0.05-0.04l-0.02-0.02l-0.03-0.03l-0.04-0.02l-0.02-0.02l-0.02-0.02l-0.02-0.02l-0.04-0.02
					l0.02,0.02l0.02,0.02l0.03,0.03l0.02,0.03l0.04,0.04l0.02,0.02l0.05,0.05l0.03,0.03l0.05,0.05l0.04,0.04l0.06,0.07l0.05,0.05
					l0.08,0.09l0.07,0.08l0.14,0.15l0.12,0.13l0.25,0.27l0.24,0.27l0.01,0.01l0.62,0.68l0.81,0.9l4.3,4.74l18.37,20.27l58.1,64.09
					l3.92,4.33v-27.54L443.47,590.73z"/>
				
					<linearGradient id="use4931_1_" gradientUnits="userSpaceOnUse" x1="-809.241" y1="1358.6268" x2="-809.1142" y2="1358.6268" gradientTransform="matrix(1581.8883 0 0 -2513.6372 1280428.125 3415661.5)">
					<stop  offset="0" style="stop-color:#90C1D2"/>
					<stop  offset="1" style="stop-color:#FBF9F8;stop-opacity:0.9961"/>
				</linearGradient>
				<path id="use4931" class="st12" d="M413.24,566.41l-0.01-0.02l-0.02-0.05l-0.02-0.03l-0.02-0.04l-0.02-0.04l-0.02-0.05
					l-0.02-0.04l-0.03-0.07l-0.02-0.04l-0.05-0.08l-0.03-0.07l-0.06-0.12l-0.05-0.09l-0.08-0.17l-0.08-0.16l-0.16-0.32v-0.01
					l-0.16-0.31v-0.01l-0.41-0.8l-0.01-0.01l-0.53-1.05l-0.01-0.01l-2.82-5.58l-0.02-0.02l-15.89-31.4l-54.61-107.88l-10.75-21.23
					l-28.14,15.31l28.47,39.02l57.82,79.25l20.61,28.24l3.74,5.12l0.72,0.99l0.55,0.74l0.2,0.29l0.22,0.3l0.1,0.15l0.12,0.16
					l0.06,0.08l0.07,0.1l0.05,0.06l0.06,0.08l0.03,0.04l0.04,0.06l0.02,0.04l0.05,0.05l0.02,0.03l0.03,0.05l0.02,0.02l0.02,0.03
					l0.01,0.01l0.02,0.03v0.01l0.01,0.01l0.02,0.02l0.01,0.02l0.02,0.02l-0.06-0.12l-0.01-0.02l-0.01-0.02l-0.01-0.01l-0.02-0.03
					v-0.01l-0.01-0.02v-0.01l-0.02-0.04l-0.02-0.02l-0.02-0.05v-0.01l-0.02-0.03l-0.02-0.05l-0.02-0.04l-0.04-0.07l-0.02-0.06
					l-0.05-0.09l-0.04-0.07l-0.07-0.13l-0.05-0.12l-0.12-0.22l-0.1-0.19l-0.22-0.44l-0.24-0.48l-0.71-1.41l-1.27-2.5l1.65,2.26
					l0.94,1.3l0.32,0.43l0.29,0.4v0.01l0.14,0.18l0.15,0.2l0.08,0.11l0.08,0.12l0.05,0.07l0.07,0.08l0.04,0.05l0.05,0.07l0.02,0.03
					l0.04,0.06l0.03,0.03l0.03,0.05l0.02,0.03l0.02,0.03l0.02,0.03l0.03,0.05l0.01,0.02l0.05,0.06L413.24,566.41z M479.82,657.68
					l-44.45-60.93l-15.9-21.79l-3.74-5.12l-0.71-0.97l-0.55-0.75l-0.21-0.29l-0.22-0.3l-0.1-0.14l-0.12-0.16l-0.07-0.09l-0.07-0.1
					l-0.05-0.05l-0.05-0.08l-0.04-0.05l-0.04-0.05l-0.02-0.03v-0.01l-0.05-0.05v-0.01l-0.02-0.02l-0.03-0.05l-0.02-0.02l-0.02-0.03
					l-0.01-0.01l-0.02-0.03l-0.01-0.02l-0.02-0.02l-0.01-0.02l-0.02-0.02l0.06,0.12l0.01,0.02l0.01,0.02l0.01,0.01l0.02,0.03v0.01
					l0.01,0.02v0.01l0.02,0.04l0.02,0.03l0.02,0.05l0.02,0.02v0.01l0.03,0.05l0.02,0.05l0.04,0.07l0.02,0.05l0.05,0.08l0.04,0.08
					l0.07,0.13l0.05,0.11l0.12,0.22l0.32,0.65l0.24,0.46l0.71,1.41l1.27,2.5l-1.65-2.26l-0.94-1.3l-0.32-0.43l-0.29-0.4v-0.01
					l-0.14-0.18l-0.15-0.2l-0.08-0.11l-0.08-0.12l-0.05-0.08l-0.06-0.08l-0.03-0.05l-0.05-0.06l-0.03-0.04l-0.05-0.06l-0.02-0.02
					l-0.03-0.05l-0.02-0.03l-0.03-0.04l-0.02-0.02l-0.03-0.04l-0.02-0.03l-0.05-0.06l0.02,0.05l0.01,0.03l0.02,0.04l0.02,0.03
					l0.02,0.04l0.02,0.04l0.03,0.05v0.01l0.02,0.03l0.03,0.07l0.02,0.05l0.05,0.08l0.03,0.05l0.05,0.12v0.01l0.05,0.09l0.08,0.17
					l0.08,0.16l0.16,0.32v0.01l0.16,0.31v0.01l0.41,0.8l0.01,0.01l0.53,1.05l0.01,0.01l2.83,5.61l11.91,23.53l26.7,52.73
					l42.64,84.24l1.64-0.89v-50.75L479.82,657.68z"/>
				
					<linearGradient id="use4935_1_" gradientUnits="userSpaceOnUse" x1="-809.3159" y1="1358.5916" x2="-809.1723" y2="1358.5916" gradientTransform="matrix(935.9739 0 0 -2735.9741 757844.125 3717638.25)">
					<stop  offset="0" style="stop-color:#90C1D2"/>
					<stop  offset="1" style="stop-color:#FBF9F8;stop-opacity:0.9961"/>
				</linearGradient>
				<path id="use4935" class="st13" d="M376.96,381.68l-31.39,7.92l69.1,183.8C414.68,573.41,376.96,381.68,376.96,381.68z
					 M479.99,743.91l-31.39,7.92L410.89,560.1L479.99,743.91z"/>
			</g>
			<g id="path4773">
				
					<linearGradient id="SVGID_1_" gradientUnits="userSpaceOnUse" x1="-809.4172" y1="1359.9489" x2="-809.2736" y2="1359.9489" gradientTransform="matrix(602.8571 0 0 -602.8572 488332.375 820416.9375)">
					<stop  offset="0" style="stop-color:#90C1D2"/>
					<stop  offset="0.9961" style="stop-color:#F4F1F0;stop-opacity:0.9961"/>
				</linearGradient>
				<ellipse class="st14" cx="412.78" cy="561.96" rx="43.29" ry="40.78"/>
			</g>
		</g>
	</g>
</g>
</svg>
