<?xml version="1.0" encoding="utf-8"?>
<!-- Generator: Adobe Illustrator 24.3.0, SVG Export Plug-In . SVG Version: 6.00 Build 0)  -->
<svg version="1.1" id="Layer_1" xmlns="http://www.w3.org/2000/svg" xmlns:xlink="http://www.w3.org/1999/xlink" x="0px" y="0px"
	 viewBox="0 0 474.07 453.09" style="enable-background:new 0 0 474.07 453.09;" xml:space="preserve">
<style type="text/css">
	.st0{fill:#507BBE;}
	.st1{opacity:0.1;}
	.st2{fill:url(#use4891_1_);}
	.st3{fill:url(#use4895_1_);}
	.st4{fill:url(#use4899_1_);}
	.st5{fill:url(#use4903_1_);}
	.st6{fill:url(#use4907_1_);}
	.st7{fill:url(#use4911_1_);}
	.st8{fill:url(#use4915_1_);}
	.st9{fill:url(#use4919_1_);}
	.st10{fill:url(#use4923_1_);}
	.st11{fill:url(#use4927_1_);}
	.st12{fill:url(#use4931_1_);}
	.st13{fill:url(#use4935_1_);}
	.st14{fill:url(#SVGID_1_);}
</style>
<path class="st0" d="M356.13-60.2v452.7c-1.7-0.06-3.39-0.14-5.08-0.25c-7.04-0.41-14-1.12-20.87-2.11
	c-10.71-1.54-21.19-3.77-31.38-6.64c-4.93-1.38-9.8-2.92-14.59-4.59c-7.67-2.7-15.16-5.76-22.44-9.16
	c-3.36-1.57-6.66-3.21-9.92-4.93c-5.53-2.89-10.92-6-16.16-9.3c-2.37-1.48-4.7-3.01-7-4.58c-4.2-2.84-8.29-5.81-12.27-8.92
	c-1.79-1.38-3.56-2.8-5.31-4.25c-3.42-2.8-6.74-5.71-9.98-8.7c-1.48-1.36-2.94-2.75-4.38-4.15c-2.98-2.9-5.88-5.87-8.7-8.92
	c-1.32-1.44-2.64-2.9-3.93-4.37c-2.78-3.17-5.48-6.42-8.08-9.74c-1.29-1.65-2.57-3.31-3.81-5c-2.76-3.71-5.4-7.51-7.91-11.39
	c-1.34-2.06-2.64-4.14-3.9-6.24c-2.83-4.66-5.48-9.43-7.95-14.3c-1.41-2.77-2.77-5.58-4.06-8.42c-2.84-6.23-5.39-12.6-7.65-19.11
	v-0.01c-1.37-3.97-2.64-7.97-3.79-12.04c-2.43-8.61-4.35-17.43-5.71-26.42c-0.87-5.73-1.52-11.53-1.93-17.39
	c-0.36-5.1-0.54-10.24-0.54-15.42c0-6.81,0.31-13.55,0.93-20.2c0.73-7.91,1.89-15.7,3.45-23.36c3.02-14.86,7.57-29.2,13.49-42.86
	c3.93-9.12,8.47-17.93,13.57-26.4c2.77-4.61,5.71-9.11,8.8-13.5C209.91-18.23,278.18-57.2,356.13-60.2z"/>
<g class="st1">
	<g id="layer1">
		<g id="g5502">
			<g id="g4962">
				
					<linearGradient id="use4891_1_" gradientUnits="userSpaceOnUse" x1="-951.86" y1="1025.0599" x2="-951.7164" y2="1025.0599" gradientTransform="matrix(226.2742 0 0 -2771.8586 215635.9062 2841554.5)">
					<stop  offset="0" style="stop-color:#90C1D2"/>
					<stop  offset="1" style="stop-color:#FBF9F8;stop-opacity:0.9961"/>
				</linearGradient>
				<path id="use4891" class="st2" d="M254.57,420.73h32.49l-16.25-194.39L254.57,420.73z M254.57,45.73h32.49l-16.25,194.39
					L254.57,45.73z"/>
				
					<linearGradient id="use4895_1_" gradientUnits="userSpaceOnUse" x1="-951.285" y1="1025.0651" x2="-951.1414" y2="1025.0651" gradientTransform="matrix(935.9739 0 0 -2735.9739 890581.5625 2804784.5)">
					<stop  offset="0" style="stop-color:#90C1D2"/>
					<stop  offset="1" style="stop-color:#FBF9F8;stop-opacity:0.9961"/>
				</linearGradient>
				<path id="use4895" class="st3" d="M203.61,410.38L235,418.3l37.71-191.73L203.61,410.38z M306.63,48.16l31.39,7.92l-69.1,183.8
					L306.63,48.16z"/>
				
					<linearGradient id="use4899_1_" gradientUnits="userSpaceOnUse" x1="-951.2101" y1="1025.1003" x2="-951.0833" y2="1025.1003" gradientTransform="matrix(1581.8885 0 0 -2513.6372 1504865.75 2576963.5)">
					<stop  offset="0" style="stop-color:#90C1D2"/>
					<stop  offset="1" style="stop-color:#FBF9F8;stop-opacity:0.9961"/>
				</linearGradient>
				<path id="use4899" class="st4" d="M270.31,232.97L270.31,232.97l-0.02,0.05l0.05-0.09L270.31,232.97z M270.31,232.97
					L270.31,232.97l-0.02,0.05l0.05-0.09L270.31,232.97z M270.31,232.97L270.31,232.97l-0.02,0.05l0.05-0.09L270.31,232.97z
					 M270.31,232.97L270.31,232.97l-0.02,0.05l0.05-0.09L270.31,232.97z M270.31,232.97L270.31,232.97l-0.02,0.05l0.05-0.09
					L270.31,232.97z M356.26,63.19L290.9,192.3l-15.89,31.39l-2.83,5.61l-0.01,0.01l-0.53,1.05l-0.01,0.01l-0.41,0.8v0.01
					l-0.16,0.31v0.01l-0.16,0.32l-0.08,0.16l-0.08,0.17l-0.05,0.1l-0.05,0.11l-0.04,0.07l-0.04,0.08l-0.02,0.04l-0.03,0.07
					l-0.02,0.04l-0.02,0.05l-0.02,0.03l-0.02,0.04l-0.02,0.04l-0.02,0.05l-0.01,0.02l-0.02,0.02l0.02-0.02l0.02-0.02l0.01-0.02
					l0.02-0.02l0.02-0.03l0.02-0.03l0.03-0.04l0.02-0.02l0.03-0.05l0.02-0.03l0.05-0.06l0.02-0.03l0.05-0.07l0.04-0.05l0.06-0.08
					l0.05-0.08l0.08-0.12l0.08-0.11l0.15-0.2l0.14-0.18v-0.01l0.29-0.4l0.32-0.43l0.94-1.3l1.65-2.26l-1.26,2.49l-0.72,1.42
					l-0.24,0.48l-0.22,0.44l-0.1,0.19l-0.12,0.22l-0.05,0.12l-0.07,0.13l-0.04,0.08l-0.05,0.08l-0.02,0.06h-0.01l-0.03,0.07
					l-0.02,0.04l-0.03,0.06l-0.02,0.02v0.01l-0.02,0.05l-0.02,0.02l-0.02,0.04v0.01l-0.01,0.02v0.01l-0.02,0.03l-0.01,0.01
					l-0.01,0.02l-0.01,0.02l-0.06,0.12l0.02-0.02l0.01-0.02l0.02-0.02l0.01-0.01v-0.01l0.02-0.03l0.01-0.01l0.02-0.03l0.02-0.02
					l0.03-0.05l0.02-0.02l0.05-0.05v-0.01l0.02-0.03l0.04-0.06l0.03-0.04l0.06-0.08l0.05-0.06l0.07-0.1l0.06-0.08l0.12-0.16
					l0.1-0.15l0.22-0.3l0.2-0.29l0.55-0.74l0.72-0.99l3.77-5.16l20.57-28.2l59.78-81.95V64.08L356.26,63.19z M270.3,232.98
					l-0.02,0.05l0.05-0.09L270.3,232.98L270.3,232.98z M270.31,232.97L270.31,232.97l-0.02,0.05l0.05-0.09L270.31,232.97z
					 M270.31,232.97L270.31,232.97l-0.02,0.05l0.05-0.09L270.31,232.97z M270.31,232.97L270.31,232.97l-0.02,0.05l0.05-0.09
					L270.31,232.97z M270.31,232.97L270.31,232.97l-0.02,0.05l0.05-0.09L270.31,232.97z M270.31,232.97L270.31,232.97l-0.02,0.05
					l0.05-0.09L270.31,232.97z M271.26,233.58l-0.03,0.04l-0.03,0.04l-0.02,0.02l-0.02,0.03l-0.03,0.04l-0.03,0.05l-0.02,0.02
					l-0.04,0.06l-0.03,0.04l-0.05,0.06l-0.03,0.05l-0.06,0.08l-0.05,0.08l-0.08,0.12l-0.08,0.11l-0.15,0.2l-0.14,0.18v0.01
					l-0.29,0.4l-0.32,0.43l-0.94,1.3l-1.65,2.26l1.27-2.5l0.72-1.41l0.23-0.46l0.32-0.65l0.12-0.22l0.05-0.11l0.07-0.13l0.04-0.08
					l0.04-0.09l0.03-0.05l0.04-0.07l0.02-0.05l0.02-0.06l0.02-0.03l0.02-0.05l0.02-0.03l0.02-0.04v-0.01l0.01-0.02v-0.01l0.02-0.03
					l0.01-0.01l0.01-0.02l0.01-0.02v-0.01l0.01-0.02l0.05-0.09l-0.03,0.04l-0.01,0.01l-0.02,0.03l-0.02,0.03l-0.01,0.01l-0.02,0.03
					l-0.02,0.02l-0.03,0.05l-0.02,0.02v0.01l-0.05,0.05l-0.02,0.03l-0.04,0.06l-0.04,0.05l-0.05,0.08l-0.05,0.05l-0.07,0.1
					l-0.07,0.09l-0.12,0.16l-0.1,0.14l-0.22,0.3l-0.21,0.29l-0.55,0.75l-0.7,0.96l-3.75,5.14l-15.9,21.79l-10.04,13.76
					l-80.95,110.97l28.14,15.31l60.53-119.55l8.81-17.42l11.92-23.54l0.02-0.02l2.82-5.58l0.01-0.01l0.53-1.05l0.01-0.01l0.41-0.8
					v-0.01l0.16-0.31v-0.01l0.16-0.32l0.08-0.16l0.08-0.17l0.05-0.1l0.05-0.11l0.03-0.06l0.05-0.08l0.02-0.05l0.03-0.07l0.02-0.03
					l0.03-0.05l0.02-0.05l0.02-0.04l0.02-0.02l0.02-0.04l0.02-0.04l0.02-0.04L271.26,233.58z M270.36,232.89l-0.02,0.02
					L270.36,232.89L270.36,232.89z"/>
				
					<linearGradient id="use4903_1_" gradientUnits="userSpaceOnUse" x1="-951.1826" y1="1025.1698" x2="-951.0698" y2="1025.1698" gradientTransform="matrix(2120 0 0 -2120 2016625.75 2173616.5)">
					<stop  offset="0" style="stop-color:#90C1D2"/>
					<stop  offset="1" style="stop-color:#FBF9F8;stop-opacity:0.9961"/>
				</linearGradient>
				<path id="use4903" class="st5" d="M271.11,233.7L271.11,233.7l-0.02,0.02l-0.02,0.02l-0.04,0.02l-0.03,0.03l-0.02,0.02
					l-0.05,0.04l-0.03,0.02l-0.05,0.05l-0.03,0.02l-0.06,0.05l-0.05,0.04l-0.08,0.06l-0.07,0.05l-0.12,0.1l-0.1,0.08l-0.19,0.16
					l-0.18,0.14l-0.39,0.32l-0.01,0.01l-0.41,0.32l-1.27,1.02l-2.23,1.8l1.88-2.08l1.09-1.2l0.36-0.41l0.35-0.38l0.15-0.16
					l0.17-0.19l0.09-0.1l0.09-0.11l0.06-0.06l0.07-0.08l0.05-0.05l0.05-0.06l0.03-0.03l0.05-0.05l0.02-0.03l0.04-0.04l0.02-0.03
					l0.04-0.04l0.02-0.02l0.03-0.03l0.03-0.04l0.02-0.02l-0.03,0.02l-0.04,0.03l-0.03,0.02l-0.04,0.03l-0.03,0.02l-0.05,0.04
					l-0.03,0.03l-0.06,0.05l-0.05,0.03l-0.08,0.07l-0.05,0.05l-0.11,0.08l-0.08,0.06l-0.15,0.12l-0.14,0.12l-0.29,0.24l-0.28,0.22
					l-0.73,0.59l-0.97,0.78l-5.04,4.05l-21.94,17.66l-12.05,9.69l-109.49,88.09l22.98,21.65l93.23-102.85l10.96-12.09l18.37-20.27
					l4.3-4.74l0.81-0.9l0.62-0.68l0.01-0.01l0.24-0.27l0.25-0.27l0.12-0.13l0.14-0.15l0.07-0.08v-0.01l0.08-0.09l0.05-0.05
					l0.06-0.07l0.04-0.04l0.05-0.05l0.03-0.03l0.05-0.05l0.02-0.02l0.04-0.04l0.03-0.04l0.02-0.02l0.02-0.02l0.02-0.02l0.05-0.05
					L271.11,233.7z M271.23,233.6l0.03-0.02l0.03-0.05L271.23,233.6z M271.11,233.7l0.08-0.05l0.05-0.05L271.11,233.7z
					 M271.11,233.7l0.08-0.05l0.05-0.05L271.11,233.7z M271.11,233.7l0.08-0.05l0.05-0.05L271.11,233.7z M271.11,233.7l0.08-0.05
					l0.05-0.05L271.11,233.7z M271.11,233.7l0.08-0.05l0.05-0.05L271.11,233.7z M271.11,233.7l0.08-0.05l0.05-0.05L271.11,233.7z
					 M300.94,199.16l-23.41,25.83l-4.32,4.77l-0.81,0.89l-0.01,0.01l-0.62,0.69l-0.25,0.27l-0.25,0.28l-0.12,0.13l-0.14,0.15
					l-0.08,0.08l-0.08,0.09l-0.05,0.05l-0.07,0.07l-0.04,0.05l-0.05,0.05l-0.03,0.03l-0.05,0.05l-0.02,0.02l-0.04,0.05l-0.05,0.05
					l-0.03,0.04l-0.04,0.04l0.03-0.02l0.05-0.04l0.05-0.04l0.02-0.02l0.02-0.02l0.04-0.03l0.03-0.02l0.05-0.04l0.03-0.02l0.05-0.04
					l0.04-0.04l0.06-0.05l0.05-0.05l0.08-0.06l0.07-0.05l0.12-0.1l0.1-0.08l0.19-0.16l0.18-0.14l0.4-0.32l0.42-0.33l1.27-1.03
					l2.22-1.78l-1.92,2.11l-1.07,1.19l-0.35,0.39l-0.35,0.38l-0.15,0.17l-0.16,0.19l-0.08,0.09l-0.1,0.11l-0.06,0.07l-0.07,0.08
					l-0.04,0.04l-0.06,0.07l-0.02,0.03l-0.05,0.05v0.01l-0.02,0.02l-0.06,0.06v0.01l-0.05,0.05l-0.01,0.01l-0.02,0.04h-0.01
					l-0.02,0.02l-0.06,0.08l0.03-0.02l0.02-0.02l0.03-0.02l0.03-0.03l0.03-0.02l0.04-0.03l0.03-0.02l0.05-0.04l0.03-0.02l0.06-0.05
					l0.04-0.03l0.08-0.06l0.05-0.05l0.1-0.08l0.09-0.07l0.15-0.12l0.13-0.12l0.29-0.23l0.29-0.22l0.73-0.59l0.94-0.76l4.99-4.02
					l26.97-21.7l51.45-41.39v-27.54L300.94,199.16z M271.19,233.65l0.05-0.05l-0.12,0.09L271.19,233.65z M271.11,233.7l0.08-0.05
					l0.05-0.05L271.11,233.7z M271.11,233.7l0.08-0.05l0.05-0.05L271.11,233.7z M271.11,233.7l0.08-0.05l0.05-0.05L271.11,233.7z
					 M271.11,233.7l0.08-0.05l0.05-0.05L271.11,233.7z M271.11,233.7l0.08-0.05l0.05-0.05L271.11,233.7z"/>
				
					<linearGradient id="use4907_1_" gradientUnits="userSpaceOnUse" x1="-951.17" y1="1025.3397" x2="-951.0635" y2="1025.3397" gradientTransform="matrix(2513.6348 0 0 -1581.8901 2390984.25 1622233)">
					<stop  offset="0" style="stop-color:#90C1D2"/>
					<stop  offset="1" style="stop-color:#FBF9F8;stop-opacity:0.9961"/>
				</linearGradient>
				<path id="use4907" class="st6" d="M270.48,232.79l-0.05,0.04l0.09-0.06L270.48,232.79z M270.48,232.79l-0.05,0.04l0.09-0.06
					L270.48,232.79z M270.48,232.79l-0.05,0.04l0.09-0.06L270.48,232.79z M270.48,232.79l-0.05,0.04l0.09-0.06L270.48,232.79z
					 M270.48,232.79l-0.05,0.04l0.09-0.06L270.48,232.79z M308.42,208.23l-28.95,18.74l-5.41,3.5l-1.02,0.66l-0.8,0.52l-0.31,0.19
					l-0.31,0.21h-0.01l-0.15,0.09l-0.17,0.12l-0.09,0.05l-0.11,0.07l-0.07,0.05l-0.07,0.05l-0.05,0.03l-0.06,0.05l-0.04,0.02
					l-0.05,0.03l-0.02,0.02l-0.05,0.03l-0.02,0.02l-0.05,0.03l-0.02,0.02l-0.02,0.01l-0.05,0.03l0.1-0.05l0.02-0.01l0.02-0.01h0.01
					l0.04-0.02l0.03-0.02l0.05-0.02l0.02-0.02l0.05-0.02l0.04-0.02l0.06-0.02l0.05-0.02l0.07-0.03l0.15-0.08l0.08-0.03l0.14-0.06
					l0.12-0.05h0.01l0.23-0.11l0.21-0.09l0.47-0.22l0.49-0.22l1.49-0.67l2.66-1.2l-2.39,1.54l-1.38,0.9l-0.46,0.3l-0.43,0.28
					l-0.19,0.12l-0.21,0.13l-0.12,0.08l-0.13,0.08l-0.07,0.05l-0.09,0.06l-0.05,0.03l-0.08,0.05l-0.04,0.02l-0.05,0.04l-0.04,0.02
					l-0.05,0.03l-0.03,0.02l-0.04,0.03l-0.03,0.02l-0.03,0.02l-0.05,0.03l-0.08,0.05l0.05-0.02l0.04-0.02l0.04-0.02l0.03-0.02h0.01
					l0.05-0.02l0.04-0.02l0.05-0.03l0.05-0.02l0.07-0.03l0.05-0.02l0.09-0.04l0.07-0.03l0.12-0.05l0.09-0.05l0.19-0.08l0.17-0.08
					l0.34-0.15l0.33-0.15l0.86-0.39l1.14-0.52l6.02-2.7l30.83-13.86l46.05-20.68v-18.52L308.42,208.23z M270.44,232.82l0.09-0.06
					l-0.05,0.02L270.44,232.82z M270.48,232.79l-0.05,0.04l0.09-0.06L270.48,232.79z M270.48,232.79l-0.05,0.04l0.09-0.06
					L270.48,232.79z M270.48,232.79l-0.05,0.04l0.09-0.06L270.48,232.79z M270.48,232.79l-0.05,0.04l0.09-0.06L270.48,232.79z
					 M270.48,232.79l-0.05,0.04l0.09-0.06L270.48,232.79z M271.05,233.73l-0.03,0.02l-0.05,0.02l-0.05,0.02l-0.02,0.01l-0.05,0.03
					l-0.03,0.02l-0.05,0.02l-0.03,0.02l-0.06,0.02l-0.05,0.02l-0.08,0.03l-0.05,0.03l-0.1,0.04l-0.08,0.04l-0.14,0.06l-0.12,0.05
					l-0.23,0.11l-0.21,0.09l-0.48,0.22l-0.51,0.23l-1.5,0.67l-2.63,1.18l2.43-1.57l1.37-0.89l0.44-0.29l0.43-0.28l0.2-0.13
					l0.21-0.13l0.11-0.07l0.13-0.08l0.07-0.05l0.09-0.06l0.05-0.03l0.07-0.05l0.04-0.02l0.05-0.04l0.04-0.02l0.05-0.03l0.02-0.02
					l0.05-0.03l0.03-0.02l0.02-0.02l0.02-0.02l0.03-0.02l0.09-0.06l-0.05,0.02l-0.04,0.02l-0.02,0.01l-0.04,0.02l-0.03,0.02
					l-0.05,0.02l-0.04,0.02l-0.05,0.02l-0.04,0.02l-0.07,0.03l-0.05,0.02l-0.09,0.04l-0.06,0.03l-0.12,0.05l-0.1,0.05l-0.19,0.08
					l-0.16,0.08l-0.33,0.15l-0.35,0.15l-0.86,0.39l-1.11,0.5l-5.97,2.68l-27.05,12.16L218.81,256L90.33,313.72l16.25,26.51
					l118.47-76.71l13.01-8.42l24.02-15.55l5.45-3.53l1.05-0.68l0.8-0.52l0.3-0.2l0.32-0.21l0.15-0.09l0.17-0.12l0.09-0.05l0.11-0.08
					l0.07-0.04l0.08-0.05l0.05-0.03l0.06-0.04l0.04-0.02l0.05-0.03h0.01l0.03-0.02l0.05-0.03l0.02-0.02l0.05-0.03L271.05,233.73
					l0.03-0.02L271.05,233.73z M270.59,232.72l-0.02,0.01l-0.05,0.03l0.1-0.05L270.59,232.72z"/>
				
					<linearGradient id="use4911_1_" gradientUnits="userSpaceOnUse" x1="-951.1644" y1="1025.8125" x2="-951.0608" y2="1025.8125" gradientTransform="matrix(2735.9731 0 0 -935.9702 2602434.75 960380)">
					<stop  offset="0" style="stop-color:#90C1D2"/>
					<stop  offset="1" style="stop-color:#FBF9F8;stop-opacity:0.9961"/>
				</linearGradient>
				<path id="use4911" class="st7" d="M270.82,233.77l0.1-0.01l0.07-0.02L270.82,233.77z M270.82,233.77l0.1-0.01l0.07-0.02
					L270.82,233.77z M270.82,233.77l0.1-0.01l0.07-0.02L270.82,233.77z M270.82,233.77l0.1-0.01l0.07-0.02L270.82,233.77z
					 M270.82,233.77l0.1-0.01l0.07-0.02L270.82,233.77z M312.84,218.63l-31.83,10.62l-6.26,2.09l-1.21,0.41l-0.9,0.3l-0.35,0.12
					l-0.37,0.12l-0.17,0.05l-0.19,0.07h-0.01l-0.1,0.03l-0.13,0.05l-0.07,0.02l-0.09,0.03l-0.05,0.02l-0.07,0.02l-0.05,0.02
					l-0.06,0.02l-0.04,0.01l-0.05,0.02l-0.02,0.01l-0.06,0.02l-0.03,0.02h-0.02l-0.04,0.02h-0.01l-0.02,0.01l0.08-0.01l0.05-0.02
					h0.04l0.05-0.02h0.02l0.09-0.02l0.05-0.01l0.04-0.01l0.06-0.02l0.05-0.01l0.08-0.02l0.06-0.01l0.11-0.02l0.08-0.02l0.15-0.02
					l0.12-0.02l0.26-0.05l0.22-0.04l0.51-0.08l0.56-0.1l1.63-0.29l2.87-0.5l-2.76,0.93l-1.56,0.52l-0.53,0.18l-0.49,0.16l-0.22,0.07
					l-0.25,0.08l-0.12,0.04l-0.15,0.05l-0.08,0.02l-0.12,0.04l-0.05,0.02l-0.08,0.03l-0.05,0.02l-0.07,0.02l-0.04,0.01l-0.05,0.02
					l-0.04,0.01l-0.04,0.02l-0.04,0.02l-0.04,0.01l-0.02,0.01l-0.03,0.02l-0.06,0.02h0.03l0.03-0.01h0.02l0.05-0.02l0.04-0.01
					l0.05-0.01h0.04l0.06-0.02l0.05-0.01l0.07-0.02l0.05-0.01l0.1-0.02l0.07-0.02l0.14-0.02l0.11-0.02l0.21-0.04l0.17-0.03
					l0.37-0.06l0.38-0.07l0.92-0.15l1.24-0.22l6.45-1.13l32.41-5.66l43.85-7.65V203.6L312.84,218.63z M270.92,233.77l0.07-0.02
					l-0.17,0.03L270.92,233.77z M270.82,233.77l0.1-0.01l0.07-0.02L270.82,233.77z M270.82,233.77l0.1-0.01l0.07-0.02L270.82,233.77
					z M270.82,233.77l0.1-0.01l0.07-0.02L270.82,233.77z M270.82,233.77l0.1-0.01l0.07-0.02L270.82,233.77z M270.82,233.77l0.1-0.01
					l0.07-0.02L270.82,233.77z M270.99,233.74h0.03l0.03-0.02L270.99,233.74z M270.82,233.77h-0.02l-0.05,0.02h-0.03l-0.05,0.01
					l-0.03,0.01l-0.05,0.01l-0.05,0.01l-0.05,0.02l-0.05,0.01l-0.08,0.02l-0.06,0.01l-0.11,0.02l-0.08,0.01l-0.15,0.03l-0.12,0.02
					l-0.26,0.05l-0.23,0.04l-0.51,0.08l-0.53,0.1l-1.62,0.28l-2.91,0.51l4.31-1.44l0.54-0.19l0.49-0.15l0.22-0.08l0.25-0.08
					l0.12-0.04l0.15-0.05l0.08-0.02l0.12-0.04l0.05-0.02l0.08-0.02l0.05-0.02l0.07-0.02l0.04-0.02l0.05-0.02l0.04-0.02l0.04-0.01
					l0.03-0.02l0.05-0.02l0.05-0.02l0.02-0.01h-0.04l-0.05,0.02h-0.02l-0.05,0.01l-0.04,0.01l-0.06,0.02l-0.05,0.01l-0.07,0.01
					l-0.05,0.02h-0.01l-0.09,0.02l-0.07,0.01l-0.14,0.03l-0.11,0.02l-0.21,0.04l-0.18,0.03l-0.38,0.06l-0.37,0.07l-0.92,0.16
					l-1.27,0.22l-6.5,1.14l-30.64,5.34h-0.01l-19.52,3.41L74.36,266.98l8.41,29.57l133.09-44.41l16.24-5.42l28.58-9.54l6.22-2.07
					l1.17-0.39l0.9-0.3l0.36-0.12l0.37-0.12l0.17-0.05l0.19-0.07h0.01l0.1-0.03l0.13-0.05l0.07-0.02l0.09-0.03l0.05-0.02l0.07-0.02
					l0.05-0.02l0.05-0.02l0.04-0.01l0.05-0.02h0.01l0.03-0.01l0.05-0.02l0.02-0.01l0.04-0.02l0.07-0.02L270.82,233.77z
					 M270.66,232.7l-0.02,0.01l0.08-0.01H270.66z"/>
				
					<linearGradient id="use4915_1_" gradientUnits="userSpaceOnUse" x1="-951.1636" y1="1029.4794" x2="-951.0604" y2="1029.4794" gradientTransform="matrix(2771.855 0 0 -226.27 2636559.25 233173.5469)">
					<stop  offset="0" style="stop-color:#90C1D2"/>
					<stop  offset="1" style="stop-color:#FBF9F8;stop-opacity:0.9961"/>
				</linearGradient>
				<path id="use4915" class="st8" d="M270.78,232.69l-0.05,0.02l0.09-0.01L270.78,232.69z M270.78,232.69l-0.05,0.02l0.09-0.01
					L270.78,232.69z M270.78,232.69l-0.05,0.02l0.09-0.01L270.78,232.69z M270.78,232.69l-0.05,0.02l0.09-0.01L270.78,232.69z
					 M270.78,232.69l-0.05,0.02l0.09-0.01L270.78,232.69z M314.09,229.48l-32.46,2.41l-6.52,0.49l-1.25,0.09l-0.95,0.07l-0.39,0.02
					l-0.38,0.03l-0.17,0.02l-0.22,0.02l-0.11,0.01l-0.13,0.01l-0.08,0.01l-0.1,0.01h-0.05l-0.08,0.01h-0.05l-0.05,0.01h-0.05
					l-0.05,0.01h-0.05l-0.05,0.01h-0.08l-0.03,0.01l0.08,0.01h0.08l0.02,0.01h0.12l0.01,0.01h0.08l0.05,0.01h0.07l0.05,0.01
					l0.08,0.01h0.06l0.11,0.01l0.08,0.01l0.16,0.02l0.13,0.01l0.25,0.02l0.25,0.02l0.52,0.04l0.56,0.04l1.63,0.12l2.95,0.22
					l-2.92,0.22l-1.65,0.12l-0.56,0.04h-0.01l-0.52,0.04l-0.22,0.02h-0.01l-0.26,0.02l-0.12,0.01l-0.17,0.02l-0.08,0.01l-0.12,0.01
					h-0.06l-0.08,0.01l-0.05,0.01h-0.07l-0.05,0.01h-0.05l-0.04,0.01h-0.08l-0.05,0.01h-0.05l-0.1,0.01l0.06,0.01h0.04l0.05,0.01
					H271l0.05,0.01h0.05l0.05,0.01h0.05l0.08,0.01h0.05l0.1,0.01l0.08,0.01l0.13,0.01l0.11,0.01l0.22,0.02l0.18,0.02l0.39,0.03
					l0.37,0.02h0.01l0.94,0.07l0.01,0.01l1.27,0.09l6.56,0.49l31.46,2.33l44.73,3.31v-14L314.09,229.48z M270.72,232.7l0.09-0.01
					l-0.04-0.01L270.72,232.7z M270.78,232.69l-0.05,0.02l0.09-0.01L270.78,232.69z M270.78,232.69l-0.05,0.02l0.09-0.01
					L270.78,232.69z M270.78,232.69l-0.05,0.02l0.09-0.01L270.78,232.69z M270.78,232.69l-0.05,0.02l0.09-0.01L270.78,232.69z
					 M270.78,232.69l-0.05,0.02l0.09-0.01L270.78,232.69z M270.85,232.69l-0.03,0.01l0.08,0.01L270.85,232.69z M270.65,233.77
					l-0.04-0.01h-0.08l-0.04-0.01h-0.05l-0.05-0.01h-0.07l-0.05-0.01l-0.08-0.01h-0.06l-0.12-0.01l-0.08-0.01l-0.17-0.02l-0.13-0.01
					l-0.25-0.02l-0.23-0.02l-0.52-0.04l-0.58-0.04l-1.65-0.12l-2.91-0.22l2.94-0.22l1.64-0.12l0.55-0.04h0.01l0.52-0.04l0.24-0.02
					l0.25-0.02l0.13-0.01l0.16-0.02l0.08-0.01l0.11-0.01h0.06l0.08-0.01l0.05-0.01h0.07l0.05-0.01h0.08l0.05-0.01h0.04l0.05-0.01
					h0.06l0.09-0.01l-0.04-0.01h-0.07l-0.05-0.01h-0.05l-0.05-0.01h-0.04l-0.05-0.01h-0.05l-0.08-0.01h-0.05l-0.1-0.01l-0.08-0.01
					l-0.13-0.01l-0.11-0.01l-0.22-0.02l-0.17-0.02l-0.39-0.03l-0.38-0.02h-0.01l-0.94-0.07l-0.01-0.01l-1.25-0.09l-6.53-0.48
					l-32.44-2.41l-26.94-2l-128.82-9.55v30.61l134.96-10.01l21.73-1.61l31.45-2.33l6.56-0.49l1.29-0.1l0.95-0.07l0.37-0.02
					l0.38-0.03l0.19-0.02l0.22-0.02l0.11-0.01l0.13-0.01l0.08-0.01l0.1-0.01h0.05l0.08-0.01h0.05v-0.01h0.1l0.05-0.01h0.04
					l0.05-0.01h0.03l0.06-0.01l-0.11-0.01H270.65z"/>
				
					<linearGradient id="use4919_1_" gradientUnits="userSpaceOnUse" x1="-951.1644" y1="1025.8485" x2="-951.0608" y2="1025.8485" gradientTransform="matrix(2735.9729 0 0 -935.9702 2602434.5 960380)">
					<stop  offset="0" style="stop-color:#90C1D2"/>
					<stop  offset="1" style="stop-color:#FBF9F8;stop-opacity:0.9961"/>
				</linearGradient>
				<path id="use4919" class="st9" d="M270.97,232.7h-0.08l0.09,0.01L270.97,232.7z M270.97,232.7h-0.08l0.09,0.01L270.97,232.7z
					 M270.97,232.7h-0.08l0.09,0.01L270.97,232.7z M270.97,232.7h-0.08l0.09,0.01L270.97,232.7z M270.97,232.7h-0.08l0.09,0.01
					L270.97,232.7z M312.35,239.94l-30.65-5.35l-6.49-1.14l-1.27-0.22l-0.92-0.16l-0.36-0.07l-0.38-0.06l-0.19-0.03l-0.2-0.04
					l-0.11-0.02l-0.14-0.02l-0.07-0.02l-0.1-0.02l-0.05-0.01l-0.07-0.02l-0.05-0.01l-0.06-0.02h-0.04l-0.05-0.01l-0.04-0.01
					l-0.05-0.01h-0.02l0.01,0.01l0.04,0.02h0.01l0.04,0.01l0.01,0.01l0.03,0.01l0.04,0.02l0.04,0.01l0.05,0.02l0.04,0.02l0.07,0.02
					l0.05,0.02l0.08,0.03l0.05,0.02l0.12,0.04l0.08,0.02l0.15,0.05l0.13,0.04l0.25,0.08l0.22,0.08l0.49,0.15l0.54,0.19l1.57,0.53
					l2.74,0.91l-2.9-0.5l-0.02-0.01l-1.61-0.28l-0.54-0.09h-0.01l-0.51-0.09l-0.22-0.04l-0.26-0.05l-0.12-0.02l-0.15-0.02
					l-0.08-0.02l-0.11-0.02l-0.06-0.01l-0.08-0.02l-0.05-0.01l-0.06-0.02l-0.04-0.01l-0.06-0.01h-0.02l-0.05-0.02h-0.03l-0.05-0.02
					h-0.02l-0.17-0.03l0.06,0.02l0.05,0.02l0.02,0.01l0.06,0.02l0.03,0.02l0.05,0.02l0.03,0.01l0.06,0.02l0.05,0.02l0.07,0.02
					l0.05,0.02l0.09,0.03l0.07,0.02l0.13,0.05l0.11,0.04l0.19,0.06l0.17,0.05l0.37,0.12l0.35,0.12l0.01,0.01l0.9,0.3h0.01l1.16,0.39
					l0.02,0.01l6.23,2.08l28.55,9.52l48.38,16.14v-14.98L312.35,239.94z M270.97,232.7h-0.08l0.09,0.01L270.97,232.7z M270.97,232.7
					h-0.08l0.09,0.01L270.97,232.7z M270.97,232.7h-0.08l0.09,0.01L270.97,232.7z M270.97,232.7h-0.08l0.09,0.01L270.97,232.7z
					 M270.97,232.7h-0.08l0.09,0.01L270.97,232.7z M270.97,232.7h-0.08l0.09,0.01L270.97,232.7z M270.97,232.7h-0.02l-0.03-0.02
					h-0.02l-0.03-0.02l-0.05-0.02l-0.02-0.01l-0.05-0.02l-0.05-0.02l-0.06-0.02l-0.04-0.02l-0.07-0.02l-0.05-0.02l-0.09-0.03
					l-0.07-0.02l-0.13-0.05l-0.1-0.03h-0.01l-0.19-0.07l-0.17-0.05l-0.37-0.12l-0.34-0.12l-0.91-0.3l-1.19-0.39l-0.01-0.01
					l-6.22-2.08l-0.02-0.01l-31.85-10.63l-37.23-12.41v-0.01L82.77,169.92l-8.41,29.56l123.11,21.49l30.12,5.25l32.4,5.66l6.46,1.13
					l1.24,0.22l0.92,0.15l0.39,0.07l0.37,0.06l0.17,0.03l0.21,0.04l0.11,0.02l0.14,0.03l0.07,0.01l0.09,0.02h0.01l0.05,0.02
					l0.07,0.01l0.05,0.01l0.06,0.02l0.04,0.01l0.05,0.01l0.04,0.01h0.03l0.01,0.01h0.05l-0.05-0.02l-0.02-0.01l-0.05-0.02
					l-0.04-0.02l-0.04-0.01l-0.04-0.02l-0.05-0.02l-0.04-0.02l-0.07-0.02l-0.05-0.02l-0.08-0.02l-0.06-0.02l-0.11-0.04l-0.08-0.02
					l-0.15-0.05l-0.12-0.04l-0.25-0.08l-0.23-0.08l-0.49-0.16l-0.52-0.18l-1.57-0.53l-2.76-0.92l2.88,0.5l1.64,0.29l0.54,0.09
					l0.01,0.01l0.52,0.08l0.22,0.04l0.26,0.05l0.12,0.02l0.15,0.03l0.08,0.01l0.11,0.02l0.06,0.01l0.08,0.02l0.05,0.01l0.05,0.02
					l0.04,0.01l0.06,0.01l0.04,0.01l0.05,0.01h0.02l0.06,0.02h0.03l0.05,0.02l0.09,0.01L270.97,232.7z M270.63,233.74l0.06,0.02
					l0.11,0.01L270.63,233.74z"/>
				
					<linearGradient id="use4923_1_" gradientUnits="userSpaceOnUse" x1="-951.17" y1="1025.3712" x2="-951.0635" y2="1025.3712" gradientTransform="matrix(2513.6348 0 0 -1581.8901 2390984.25 1622233)">
					<stop  offset="0" style="stop-color:#90C1D2"/>
					<stop  offset="1" style="stop-color:#FBF9F8;stop-opacity:0.9961"/>
				</linearGradient>
				<path id="use4923" class="st10" d="M270.48,233.67l0.02,0.02l0.02,0.01L270.48,233.67z M271.06,232.74L271.06,232.74l-0.02-0.02
					l-0.05-0.01l0.11,0.05L271.06,232.74z M270.48,233.67l0.02,0.02l0.02,0.01L270.48,233.67z M270.48,233.67l0.02,0.02l0.02,0.01
					L270.48,233.67z M270.48,233.67l0.02,0.02l0.02,0.01L270.48,233.67z M270.48,233.67l0.02,0.02l0.02,0.01L270.48,233.67z
					 M270.48,233.67l0.02,0.02l0.02,0.01L270.48,233.67z M307.99,249.34l-27.03-12.14l-0.02-0.01l-5.96-2.68l-0.02-0.01l-1.1-0.49
					l-0.01-0.01l-0.86-0.39h-0.01l-0.35-0.15l-0.33-0.15l-0.16-0.07l-0.19-0.08l-0.11-0.05l-0.12-0.05l-0.06-0.03l-0.09-0.04h-0.01
					l-0.05-0.02l-0.07-0.03l-0.04-0.02l-0.05-0.02l-0.04-0.02l-0.05-0.02l-0.03-0.02l-0.04-0.02l-0.03-0.02l-0.03-0.01l-0.05-0.02
					l0.09,0.06l0.02,0.01l0.03,0.02l0.02,0.02l0.03,0.02l0.05,0.03l0.02,0.02l0.05,0.03l0.04,0.02l0.05,0.04l0.04,0.02l0.07,0.05
					l0.05,0.03l0.08,0.05l0.08,0.05l0.13,0.08l0.11,0.07l0.21,0.13l0.2,0.13l0.43,0.28h0.01l0.44,0.29l1.36,0.89l0.02,0.01
					l2.42,1.56l-2.63-1.18l-1.51-0.68l-0.5-0.22l-0.48-0.22l-0.21-0.09l-0.23-0.11l-0.12-0.05l-0.14-0.06l-0.08-0.04l-0.1-0.04
					l-0.05-0.03l-0.08-0.03l-0.05-0.02l-0.06-0.03l-0.03-0.01h-0.01l-0.05-0.02l-0.03-0.02h-0.01l-0.05-0.02h-0.01l-0.02-0.01
					l-0.05-0.02h-0.01l-0.04-0.02l-0.02-0.01l-0.05-0.02l0.02,0.02l0.04,0.02l0.05,0.03l0.02,0.01l0.05,0.04l0.03,0.02l0.05,0.03
					l0.03,0.02l0.07,0.04l0.05,0.03l0.08,0.05l0.07,0.04l0.11,0.08l0.09,0.05l0.17,0.12l0.15,0.09l0.32,0.21l0.3,0.2l0.8,0.52
					l1.03,0.66l5.47,3.54l24.01,15.55l54.32,35.18v-18.52L307.99,249.34z M270.51,233.7l0.02,0.01l-0.05-0.03L270.51,233.7z
					 M270.48,233.67l0.02,0.02l0.02,0.01L270.48,233.67z M270.48,233.67l0.02,0.02l0.02,0.01L270.48,233.67z M270.48,233.67
					l0.02,0.02l0.02,0.01L270.48,233.67z M270.48,233.67l0.02,0.02l0.02,0.01L270.48,233.67z M271.06,232.74L271.06,232.74
					l-0.02-0.02l-0.05-0.01l0.11,0.05L271.06,232.74z M270.48,233.67l0.02,0.02l0.02,0.01L270.48,233.67z M271.06,232.74
					L271.06,232.74l-0.02-0.02l-0.02-0.02h-0.01l-0.04-0.03l-0.03-0.02l-0.05-0.04l-0.02-0.02l-0.05-0.03l-0.04-0.02l-0.07-0.05
					l-0.05-0.03l-0.08-0.05l-0.06-0.05l-0.11-0.07l-0.09-0.05l-0.17-0.12l-0.15-0.09H270l-0.31-0.21l-0.31-0.19l-0.8-0.52
					l-1.02-0.66l-5.44-3.52l-28.92-18.72l-48.98-31.72l-77.65-50.29l-16.25,26.51l98.31,44.18l41.15,18.48l30.85,13.86l0.02,0.01
					l5.97,2.69l1.14,0.51l0.01,0.01l0.86,0.39h0.01l0.33,0.15l0.34,0.15l0.17,0.08l0.19,0.08l0.09,0.05l0.12,0.05l0.07,0.03
					l0.09,0.04l0.05,0.02l0.07,0.03l0.05,0.02l0.05,0.03l0.04,0.02l0.05,0.02h0.01l0.03,0.02l0.04,0.02l0.04,0.02l0.04,0.02
					l0.02,0.01l-0.05-0.03l-0.04-0.02l-0.05-0.03l-0.03-0.02l-0.03-0.02l-0.04-0.03l-0.03-0.02l-0.05-0.03l-0.04-0.02l-0.05-0.04
					l-0.04-0.02l-0.08-0.05l-0.05-0.04l-0.08-0.05l-0.07-0.05l-0.13-0.08l-0.12-0.08l-0.21-0.13l-0.19-0.12l-0.43-0.28h-0.01
					l-0.45-0.3l-1.37-0.89l-0.01-0.01l-2.4-1.55l2.65,1.19l1.51,0.68l0.49,0.22l0.47,0.22l0.21,0.09l0.23,0.11h0.01l0.12,0.05
					l0.14,0.06l0.08,0.03l0.09,0.05l0.06,0.03l0.07,0.03l0.05,0.02l0.06,0.03l0.04,0.02l0.05,0.02l0.02,0.02l0.05,0.02l0.02,0.02
					h0.01l0.03,0.02h0.02l0.02,0.01l0.01,0.01l0.11,0.05L271.06,232.74z"/>
				
					<linearGradient id="use4927_1_" gradientUnits="userSpaceOnUse" x1="-951.1826" y1="1025.1918" x2="-951.0698" y2="1025.1918" gradientTransform="matrix(2119.9961 0 0 -2120.0002 2016622.125 2173616.75)">
					<stop  offset="0" style="stop-color:#90C1D2"/>
					<stop  offset="1" style="stop-color:#FBF9F8;stop-opacity:0.9961"/>
				</linearGradient>
				<path id="use4927" class="st11" d="M271.18,232.79l-0.02-0.02l-0.01-0.01l-0.02-0.02l-0.02-0.02l-0.05-0.05l-0.02-0.02
					l-0.05-0.05l-0.02-0.02l-0.05-0.06l-0.04-0.04l-0.06-0.08l-0.05-0.05l-0.08-0.09l-0.07-0.08l-0.14-0.15l-0.12-0.13l-0.25-0.27
					l-0.24-0.27l-0.01-0.01l-0.62-0.68l-0.81-0.9l-4.3-4.74l-23.45-25.86l-57.65-63.59l-41.47-45.74l-22.98,21.65l64.14,51.61
					l52.45,42.2l26.94,21.67l5.01,4.03l0.95,0.76l0.73,0.59l0.01,0.01l0.29,0.22l0.29,0.23l0.13,0.12l0.15,0.12l0.09,0.07l0.1,0.08
					l0.05,0.05l0.08,0.05l0.05,0.04l0.06,0.05l0.03,0.03l0.05,0.04l0.03,0.02l0.04,0.03l0.03,0.02l0.04,0.03l0.03,0.02l0.02,0.02
					l-0.05-0.06l-0.02-0.02h-0.01l-0.02-0.04l-0.01-0.01l-0.02-0.02l-0.03-0.03v-0.01l-0.02-0.02l-0.04-0.04l-0.03-0.03l-0.05-0.05
					l-0.03-0.04l-0.05-0.06l-0.04-0.04l-0.07-0.08l-0.06-0.07l-0.1-0.11l-0.08-0.09l-0.16-0.19l-0.15-0.17l-0.34-0.38l-0.36-0.39
					l-1.07-1.19l-1.92-2.11l2.22,1.78l1.27,1.03l0.42,0.33l0.4,0.32l0.18,0.14l0.19,0.16l0.1,0.08l0.12,0.1l0.07,0.05l0.08,0.06
					l0.05,0.04l0.07,0.05l0.04,0.04l0.05,0.04l0.02,0.02l0.05,0.04l0.03,0.02l0.04,0.03l0.05,0.05h0.01l0.04,0.03l0.05,0.04
					L271.18,232.79z M271.24,232.85l-0.03-0.02l0.04,0.04L271.24,232.85z M301.5,257.21l-21.94-17.66l-5.04-4.05l-0.96-0.77h-0.01
					l-0.73-0.59h-0.01l-0.27-0.22l-0.29-0.24h-0.01l-0.14-0.12l-0.16-0.12l-0.08-0.06l-0.11-0.08l-0.06-0.05l-0.07-0.06l-0.05-0.03
					l-0.06-0.05l-0.03-0.03l-0.05-0.04l-0.03-0.02l-0.04-0.03l-0.03-0.02l-0.04-0.03l-0.03-0.02l-0.02-0.02l0.05,0.06l0.02,0.02
					h0.01l0.02,0.04l0.01,0.02l0.02,0.01l0.03,0.03v0.01l0.02,0.02l0.04,0.04l0.02,0.03l0.05,0.05l0.02,0.04l0.05,0.05l0.05,0.05
					l0.08,0.08l0.05,0.06l0.1,0.11l0.08,0.1l0.17,0.19l0.15,0.16l0.35,0.38l0.01,0.01l0.36,0.39l1.08,1.19l1.89,2.09l-2.22-1.78
					l-1.27-1.03l-0.42-0.33l-0.4-0.32l-0.18-0.14l-0.19-0.16l-0.1-0.08l-0.12-0.1l-0.07-0.05l-0.08-0.06l-0.05-0.05l-0.06-0.05
					l-0.04-0.02l-0.05-0.04l-0.04-0.03l-0.05-0.04l-0.02-0.02l-0.03-0.03l-0.04-0.02l-0.02-0.02l-0.02-0.02l-0.02-0.02l-0.04-0.02
					l0.02,0.02l0.02,0.02l0.03,0.03l0.02,0.03l0.04,0.04l0.02,0.02l0.05,0.05l0.03,0.03l0.05,0.05l0.04,0.04l0.06,0.07l0.05,0.05
					l0.08,0.09l0.07,0.08l0.14,0.15l0.12,0.13l0.25,0.27l0.24,0.27l0.01,0.01l0.62,0.68l0.81,0.9l4.3,4.74l18.37,20.27l58.1,64.09
					l3.92,4.33v-27.54L301.5,257.21z"/>
				
					<linearGradient id="use4931_1_" gradientUnits="userSpaceOnUse" x1="-951.2101" y1="1025.1003" x2="-951.0833" y2="1025.1003" gradientTransform="matrix(1581.8883 0 0 -2513.6372 1504865.5 2576963.5)">
					<stop  offset="0" style="stop-color:#90C1D2"/>
					<stop  offset="1" style="stop-color:#FBF9F8;stop-opacity:0.9961"/>
				</linearGradient>
				<path id="use4931" class="st12" d="M271.27,232.89l-0.01-0.02l-0.02-0.05l-0.02-0.03l-0.02-0.04l-0.02-0.04l-0.02-0.05
					l-0.02-0.04l-0.03-0.07l-0.02-0.04l-0.05-0.08l-0.03-0.07l-0.06-0.12l-0.05-0.09l-0.08-0.17l-0.08-0.16l-0.16-0.32v-0.01
					l-0.16-0.31v-0.01l-0.41-0.8l-0.01-0.01l-0.53-1.05l-0.01-0.01l-2.82-5.58l-0.02-0.02l-15.89-31.4L196.12,84.42l-10.75-21.23
					L157.23,78.5l28.47,39.02l57.82,79.25l20.61,28.24l3.74,5.12l0.72,0.99l0.55,0.74l0.2,0.29l0.22,0.3l0.1,0.15l0.12,0.16
					l0.06,0.08l0.07,0.1l0.05,0.06l0.06,0.08l0.03,0.04l0.04,0.06l0.02,0.04l0.05,0.05l0.02,0.03l0.03,0.05l0.02,0.02l0.02,0.03
					l0.01,0.01l0.02,0.03v0.01l0.01,0.01l0.02,0.02l0.01,0.02l0.02,0.02l-0.06-0.12l-0.01-0.02l-0.01-0.02l-0.01-0.01l-0.02-0.03
					v-0.01l-0.01-0.02v-0.01l-0.02-0.04l-0.02-0.02l-0.02-0.05v-0.01l-0.02-0.03l-0.02-0.05l-0.02-0.04l-0.04-0.07l-0.02-0.06
					l-0.05-0.09l-0.04-0.07l-0.07-0.13l-0.05-0.12l-0.12-0.22l-0.1-0.19l-0.22-0.44l-0.24-0.48l-0.71-1.41l-1.27-2.5l1.65,2.26
					l0.94,1.3l0.32,0.43l0.29,0.4v0.01l0.14,0.18l0.15,0.2l0.08,0.11l0.08,0.12l0.05,0.07l0.07,0.08l0.04,0.05l0.05,0.07l0.02,0.03
					l0.04,0.06l0.03,0.03l0.03,0.05l0.02,0.03l0.02,0.03l0.02,0.03l0.03,0.05l0.01,0.02l0.05,0.06L271.27,232.89z M337.85,324.16
					l-44.45-60.93l-15.9-21.79l-3.74-5.12l-0.71-0.97l-0.55-0.75l-0.21-0.29l-0.22-0.3l-0.1-0.14l-0.12-0.16l-0.07-0.09l-0.07-0.1
					l-0.05-0.05l-0.05-0.08l-0.04-0.05l-0.04-0.05l-0.02-0.03v-0.01l-0.05-0.05v-0.01l-0.02-0.02l-0.03-0.05l-0.02-0.02l-0.02-0.03
					l-0.01-0.01l-0.02-0.03l-0.01-0.02l-0.02-0.02l-0.01-0.02l-0.02-0.02l0.06,0.12l0.01,0.02l0.01,0.02l0.01,0.01l0.02,0.03v0.01
					l0.01,0.02v0.01l0.02,0.04l0.02,0.03l0.02,0.05l0.02,0.02v0.01l0.03,0.05l0.02,0.05l0.04,0.07l0.02,0.05l0.05,0.08l0.04,0.08
					l0.07,0.13l0.05,0.11l0.12,0.22l0.32,0.65l0.24,0.46l0.71,1.41l1.27,2.5l-1.65-2.26l-0.94-1.3l-0.32-0.43l-0.29-0.4v-0.01
					l-0.14-0.18l-0.15-0.2l-0.08-0.11l-0.08-0.12l-0.05-0.08l-0.06-0.08l-0.03-0.05l-0.05-0.06l-0.03-0.04l-0.05-0.06l-0.02-0.02
					l-0.03-0.05l-0.02-0.03l-0.03-0.04l-0.02-0.02l-0.03-0.04l-0.02-0.03l-0.05-0.06l0.02,0.05l0.01,0.03l0.02,0.04l0.02,0.03
					l0.02,0.04l0.02,0.04l0.03,0.05v0.01l0.02,0.03l0.03,0.07l0.02,0.05l0.05,0.08l0.03,0.05l0.05,0.12v0.01l0.05,0.09l0.08,0.17
					l0.08,0.16l0.16,0.32v0.01l0.16,0.31v0.01l0.41,0.8l0.01,0.01l0.53,1.05l0.01,0.01l2.83,5.61l11.91,23.53l26.7,52.73
					l42.64,84.24l1.64-0.89v-50.75L337.85,324.16z"/>
				
					<linearGradient id="use4935_1_" gradientUnits="userSpaceOnUse" x1="-951.285" y1="1025.0651" x2="-951.1414" y2="1025.0651" gradientTransform="matrix(935.9739 0 0 -2735.9741 890581.5625 2804785)">
					<stop  offset="0" style="stop-color:#90C1D2"/>
					<stop  offset="1" style="stop-color:#FBF9F8;stop-opacity:0.9961"/>
				</linearGradient>
				<path id="use4935" class="st13" d="M235,48.16l-31.39,7.92l69.1,183.8C272.71,239.88,235,48.16,235,48.16z M338.02,410.38
					l-31.39,7.92l-37.71-191.73L338.02,410.38z"/>
			</g>
			<g id="path4773">
				
					<linearGradient id="SVGID_1_" gradientUnits="userSpaceOnUse" x1="-951.3863" y1="1026.4225" x2="-951.2427" y2="1026.4225" gradientTransform="matrix(602.8571 0 0 -602.8572 573777.5 619014.5625)">
					<stop  offset="0" style="stop-color:#90C1D2"/>
					<stop  offset="0.9961" style="stop-color:#F4F1F0;stop-opacity:0.9961"/>
				</linearGradient>
				<ellipse class="st14" cx="270.81" cy="228.43" rx="43.29" ry="40.78"/>
			</g>
		</g>
	</g>
</g>
</svg>
